<?xml version="1.0" encoding="UTF-8"?>
<svg width="135px" height="139px" viewBox="0 0 135 139" version="1.1" xmlns="http://www.w3.org/2000/svg" xmlns:xlink="http://www.w3.org/1999/xlink">
    <!-- Generator: Sketch 49.1 (51147) - http://www.bohemiancoding.com/sketch -->
    <title>decentralized-icn</title>
    <desc>Created with Sketch.</desc>
    <defs></defs>
    <g id="Website-V1" stroke="none" stroke-width="1" fill="none" fill-rule="evenodd">
        <g transform="translate(-178.000000, -1040.000000)" fill-rule="nonzero" id="decentralized-icn">
            <g transform="translate(178.000000, 1040.000000)">
                <g id="Group" transform="translate(0.000000, 9.697674)">
                    <ellipse id="Oval" fill="#FFFFFF" cx="44.7509664" cy="44.3070085" rx="14.4485456" ry="14.5189301"></ellipse>
                    <ellipse id="Oval" fill="#1559FF" cx="44.7509664" cy="44.3070085" rx="10.8473883" ry="10.9002302"></ellipse>
                    <path d="M45.4536312,59.6202873 L45.3657981,57.9874593 C45.8488802,57.9433288 46.3758788,57.8991983 46.8589609,57.8109374 L47.1224602,59.3996349 C46.5954616,59.5320264 46.0245464,59.6202873 45.4536312,59.6202873 Z M43.7408857,59.6202873 C43.1699705,59.5761568 42.5990554,59.5320264 42.0720567,59.3996349 L42.3355561,57.8109374 C42.8186381,57.8991983 43.3456367,57.9433288 43.8287188,57.9874593 L43.7408857,59.6202873 Z M48.7912892,59.0907215 L48.3521237,57.5461545 C48.8352057,57.413763 49.3182878,57.2372411 49.8013699,57.0607191 L50.4162016,58.5611556 C49.889203,58.7376776 49.3182878,58.95833 48.7912892,59.0907215 Z M40.4032278,59.0024605 L40.183645,58.9141995 C39.7005629,58.7818081 39.2613974,58.6052861 38.8222319,58.4287642 L39.4370636,56.9283276 C39.8323126,57.1048496 40.2714781,57.2372411 40.6667271,57.3696325 L40.8423933,57.413763 L40.4032278,59.0024605 Z M51.9532809,57.8109374 L51.2066995,56.3987618 C51.6458651,56.1781094 52.0850306,55.9133265 52.5241961,55.604413 L53.4464437,56.9283276 C52.9194451,57.2813715 52.436363,57.5461545 51.9532809,57.8109374 Z M37.2851526,57.6785459 C36.8020705,57.413763 36.3189884,57.1048496 35.8359064,56.7518057 L36.758154,55.4278911 C37.1534029,55.7368045 37.5925684,56.0015874 38.031734,56.2663703 L37.2851526,57.6785459 Z M54.7200237,55.9133265 L53.6660265,54.6776728 C54.0612754,54.3246289 54.4126078,53.971585 54.7639402,53.6185412 L55.9496872,54.7218033 C55.5544382,55.1189777 55.1591892,55.5161521 54.7200237,55.9133265 Z M34.5184098,55.692674 C34.0792443,55.2954996 33.6839953,54.8983253 33.3326629,54.5011509 L34.5184098,53.4420192 C34.8697422,53.8391936 35.2210746,54.1922375 35.5724071,54.5452814 L34.5184098,55.692674 Z M57.0476009,53.3978887 L55.7740209,52.427018 C56.0814368,52.0298436 56.3449361,51.5885388 56.6084354,51.1472339 L58.0137651,51.9415827 C57.6624327,52.4711485 57.3550168,52.9565839 57.0476009,53.3978887 Z M32.2786657,53.1772363 C31.9712498,52.7359314 31.6638339,52.2504961 31.3564181,51.7209302 L32.7617477,50.9265815 C33.025247,51.3678863 33.2887464,51.8091912 33.5522457,52.2063656 L32.2786657,53.1772363 Z M58.7164299,50.4411461 L57.2232672,49.7791888 C57.4428499,49.337884 57.6185161,48.8524486 57.7502658,48.3670133 C57.8380989,48.1022303 57.925932,47.8374474 57.9698485,47.5726645 L59.5508444,47.9698389 C59.4630113,48.2787523 59.3751782,48.5435352 59.2873451,48.8524486 C59.1555954,49.4261449 58.9360127,49.9557108 58.7164299,50.4411461 Z M30.6537532,50.1763632 C30.4341705,49.6467974 30.2585043,49.1172315 30.0828381,48.5876657 L31.6199174,48.1463608 C31.751667,48.6317962 31.9273332,49.1172315 32.1029995,49.6026669 L30.6537532,50.1763632 Z M29.6875891,46.9107072 C29.599756,46.3370109 29.5119229,45.7633145 29.5119229,45.2337487 L31.1368353,45.1454877 C31.1807519,45.6309231 31.2246684,46.1604889 31.3125015,46.6459243 L29.6875891,46.9107072 Z M59.9021768,46.2928804 L58.321181,46.072228 C58.4090141,45.5867926 58.4090141,45.0572268 58.4529306,44.5717914 L60.077843,44.6159219 C59.9900099,45.1896182 59.9460934,45.7633145 59.9021768,46.2928804 Z M31.0929188,43.6009207 L29.4680063,43.5126597 C29.5119229,42.9389634 29.5558394,42.3652671 29.6436725,41.8357012 L31.2246684,42.1004842 C31.1807519,42.5859195 31.1368353,43.1154854 31.0929188,43.6009207 Z M58.3650975,43.0713549 C58.321181,42.5859195 58.2333479,42.0563537 58.1455147,41.5709183 L59.7265106,41.2620049 C59.8582603,41.8357012 59.9021768,42.3652671 59.9900099,42.9389634 L58.3650975,43.0713549 Z M31.5760008,40.6000476 L30.0389215,40.1587428 C30.0828381,40.0263513 30.1267546,39.8498294 30.1706712,39.7174379 C30.3024208,39.3202635 30.4341705,38.9230891 30.5659201,38.5259148 L32.0590829,39.1437416 C31.9273332,39.4967855 31.7955836,39.8498294 31.7077505,40.2028732 C31.6638339,40.3352647 31.6199174,40.4676562 31.5760008,40.6000476 Z M57.7502658,40.0704818 C57.5745996,39.5850464 57.3989334,39.0996111 57.2232672,38.6583062 L58.6725134,37.9963489 C58.8920961,38.5259148 59.1116789,39.0554806 59.2873451,39.5850464 L57.7502658,40.0704818 Z M32.7178312,37.7756965 L31.3125015,37.0254782 C31.5760008,36.5400429 31.8834167,36.0546075 32.1908326,35.5691722 L33.5083291,36.4959124 C33.2448298,36.8930868 32.9813305,37.3343916 32.7178312,37.7756965 Z M56.5206023,37.2902611 C56.257103,36.8489563 55.9936037,36.4076514 55.6861878,36.010477 L56.9597678,35.0396063 C57.3111003,35.4809112 57.6185161,35.9663465 57.8820154,36.4517819 L56.5206023,37.2902611 Z M34.4305767,35.2602588 L33.2009133,34.2011271 C33.5522457,33.7598222 33.9914112,33.3626478 34.3866602,32.9654735 L35.484574,34.1569966 C35.1332415,34.5100405 34.7819091,34.9072149 34.4305767,35.2602588 Z M54.6761071,34.8630844 C54.3247747,34.5100405 53.9734423,34.1569966 53.5781933,33.8039527 L54.6321906,32.5682991 C55.0713561,32.921343 55.4666051,33.3185173 55.861854,33.7598222 L54.6761071,34.8630844 Z M36.6703209,33.2302564 L35.7041567,31.9063418 C36.1433222,31.5532979 36.6264043,31.2443845 37.1094864,30.9796016 L37.8999843,32.3917771 C37.5047353,32.6124296 37.1094864,32.921343 36.6703209,33.2302564 Z M52.3485299,32.8772125 C51.9093644,32.6124296 51.4701989,32.3476466 51.0310333,32.0828637 L51.7776147,30.6706881 C52.2606968,30.9354711 52.7876954,31.2443845 53.2268609,31.5532979 L52.3485299,32.8772125 Z M39.305314,31.6856893 L38.6465657,30.1852528 C39.1735643,29.9646004 39.7005629,29.7439479 40.2275616,29.6115565 L40.7106436,31.1561235 C40.2714781,31.3326454 39.788396,31.5091674 39.305314,31.6856893 Z M49.6696202,31.5091674 C49.4061209,31.4209064 49.0987051,31.288515 48.7912892,31.200254 C48.615623,31.1561235 48.3960402,31.0678625 48.220374,31.023732 L48.615623,29.479165 C48.8352057,29.5232955 49.0547885,29.6115565 49.2743713,29.655687 C49.5817871,29.7439479 49.9331195,29.8763394 50.2405354,30.0087309 L49.6696202,31.5091674 Z M42.2038064,30.8030796 L41.8963905,29.2143821 C42.4673057,29.1261211 42.9943043,29.0378601 43.5652195,28.9937297 L43.6969692,30.6265577 C43.2138871,30.6265577 42.6868885,30.7148186 42.2038064,30.8030796 Z M46.7272112,30.7148186 C46.2441292,30.6265577 45.7171306,30.5824272 45.2340485,30.5824272 L45.277965,28.9495992 C45.8488802,28.9495992 46.4197954,29.0378601 46.946794,29.1261211 L46.7272112,30.7148186 Z" id="Shape" fill="#4A555F"></path>
                    <ellipse id="Oval" fill="#FFFFFF" cx="67.4119072" cy="81.6414001" rx="14.4485456" ry="14.5189301"></ellipse>
                    <ellipse id="Oval" fill="#1559FF" cx="67.4119072" cy="81.6414001" rx="10.8473883" ry="10.9002302"></ellipse>
                    <path d="M68.114572,96.9988094 L68.0267389,95.3659814 C68.509821,95.3218509 69.0368196,95.2777205 69.5199017,95.23359 L69.783401,96.8222875 C69.2564024,96.9105485 68.6854872,96.9546789 68.114572,96.9988094 Z M66.4018265,96.9988094 C65.8309113,96.9546789 65.2599962,96.9105485 64.7329975,96.778157 L64.9964968,95.1894595 C65.4795789,95.2777205 66.0065775,95.3218509 66.4896596,95.3659814 L66.4018265,96.9988094 Z M71.45223,96.4692436 L71.0130645,94.9246766 C71.4961465,94.7922851 71.9792286,94.6157632 72.4623107,94.4392412 L73.0771424,95.9396778 C72.5501438,96.1161997 71.9792286,96.2927216 71.45223,96.4692436 Z M63.0641686,96.3809826 L62.8445858,96.2927216 C62.3615037,96.1603302 61.9223382,95.9838082 61.4831727,95.8072863 L62.0980044,94.3068497 C62.4932534,94.4833717 62.9324189,94.6157632 63.3276679,94.7481546 L63.5033341,94.7922851 L63.0641686,96.3809826 Z M74.6142217,95.1894595 L73.8676403,93.7772839 C74.3068059,93.5566315 74.7459714,93.2918486 75.1851369,92.9829352 L76.1073845,94.3068497 C75.5803859,94.6157632 75.0973038,94.9246766 74.6142217,95.1894595 Z M59.9460934,95.057068 C59.4630113,94.7922851 58.9799292,94.4833717 58.4968472,94.1303278 L59.4190948,92.8064132 C59.8143437,93.1153266 60.2535092,93.3801095 60.6926748,93.6448925 L59.9460934,95.057068 Z M77.3809645,93.2918486 L76.3269672,92.0561949 C76.7222162,91.703151 77.0735486,91.3501072 77.424881,90.9970633 L78.6106279,92.1003254 C78.215379,92.4974998 77.82013,92.8946742 77.3809645,93.2918486 Z M57.1793506,93.0711961 C56.7401851,92.6740217 56.3449361,92.2768474 55.9936037,91.879673 L57.1793506,90.8205413 C57.530683,91.2177157 57.8820154,91.5707596 58.2333479,91.9238035 L57.1793506,93.0711961 Z M79.7085417,90.7764108 L78.4349617,89.8055401 C78.7423776,89.4083657 79.0058769,88.9670609 79.2693762,88.525756 L80.6747059,89.3201048 C80.36729,89.8496706 80.0159576,90.335106 79.7085417,90.7764108 Z M54.9396065,90.5116279 C54.6321906,90.070323 54.3247747,89.5848877 54.0173589,89.0553219 L55.4226885,88.2609731 C55.6861878,88.702278 55.9496872,89.1435828 56.2131865,89.5407572 L54.9396065,90.5116279 Z M81.3773707,87.8196682 L79.884208,87.1577109 C80.1037907,86.7164061 80.2794569,86.2309707 80.4112066,85.7455354 C80.4990397,85.4807524 80.5868728,85.2159695 80.6307893,84.9511866 L82.2117852,85.348361 C82.1239521,85.6572744 82.036119,85.9220573 81.9482859,86.2309707 C81.8165362,86.7605366 81.64087,87.3342329 81.3773707,87.8196682 Z M53.314694,87.5548853 C53.0951113,87.0253195 52.9194451,86.4957536 52.7437789,85.9661878 L54.2808582,85.5248829 C54.4126078,86.0103183 54.588274,86.4957536 54.7639402,86.981189 L53.314694,87.5548853 Z M52.3485299,84.2892293 C52.2606968,83.715533 52.1728637,83.1418367 52.1728637,82.6122708 L53.7977761,82.5240098 C53.8416927,83.0094452 53.8856092,83.539011 53.9734423,84.0244464 L52.3485299,84.2892293 Z M82.5631176,83.6714025 L80.9821217,83.4507501 C81.0699549,82.9653147 81.0699549,82.4357489 81.1138714,81.9503135 L82.7387838,81.994444 C82.6509507,82.5240098 82.6070342,83.0977062 82.5631176,83.6714025 Z M53.7538596,80.9794428 L52.1289471,80.8911818 C52.1728637,80.3174855 52.2167802,79.7437892 52.3046133,79.2142234 L53.8856092,79.4790063 C53.8416927,79.9644416 53.7977761,80.449877 53.7538596,80.9794428 Z M81.0260383,80.4057465 C80.9821217,79.9203111 80.8942886,79.3907453 80.8064555,78.9053099 L82.3874514,78.5963965 C82.5192011,79.1700929 82.5631176,79.6996587 82.6509507,80.273355 L81.0260383,80.4057465 Z M54.2369416,77.9785697 L52.6998623,77.5372649 C52.7437789,77.4048734 52.7876954,77.2283515 52.831612,77.09596 C52.9633616,76.6987856 53.0951113,76.3016112 53.2268609,75.9044369 L54.7200237,76.5222637 C54.588274,76.8753076 54.4565244,77.2283515 54.3686913,77.5813953 C54.3247747,77.7137868 54.2808582,77.8461783 54.2369416,77.9785697 Z M80.4112066,77.4490039 C80.2355404,76.9635685 80.0598742,76.4781332 79.884208,76.0368283 L81.3334542,75.374871 C81.5530369,75.9044369 81.7726197,76.4340027 81.9482859,76.9635685 L80.4112066,77.4490039 Z M55.378772,75.1542186 L53.9734423,74.4040003 C54.2369416,73.918565 54.5443575,73.4331296 54.8517734,72.9476943 L56.1692699,73.8744345 C55.9057706,74.2716089 55.6422713,74.7129137 55.378772,75.1542186 Z M79.1815431,74.6687832 C78.9180438,74.2274784 78.6545445,73.7861735 78.3471286,73.3889991 L79.6207086,72.4181284 C79.9720411,72.8594333 80.2794569,73.3448686 80.5429562,73.830304 L79.1815431,74.6687832 Z M57.1354341,72.6387809 L55.9057706,71.5796492 C56.257103,71.1383443 56.6962685,70.7411699 57.0915175,70.3439956 L58.1894313,71.5355187 C57.7941823,71.8885626 57.4428499,72.2416065 57.1354341,72.6387809 Z M77.3370479,72.2416065 C76.9857155,71.8885626 76.6343831,71.5355187 76.2391341,71.1824748 L77.2931314,69.9468212 C77.7322969,70.2998651 78.1275459,70.6970394 78.5227948,71.1383443 L77.3370479,72.2416065 Z M59.3312616,70.564648 L58.3650975,69.2407334 C58.804263,68.8876895 59.2873451,68.5787761 59.7704272,68.3139932 L60.5609251,69.7261687 C60.1656761,69.9909517 59.7704272,70.2998651 59.3312616,70.564648 Z M75.0533872,70.2557346 C74.6142217,69.9909517 74.1750562,69.7261687 73.7358907,69.4613858 L74.4824721,68.0492103 C74.9655541,68.3139932 75.4925528,68.6229066 75.9317183,68.93182 L75.0533872,70.2557346 Z M61.9662548,69.0642114 L61.3075065,67.5637749 C61.8345051,67.3431225 62.3615037,67.12247 62.8885024,66.9900786 L63.3715844,68.5346456 C62.9324189,68.6670371 62.4493368,68.843559 61.9662548,69.0642114 Z M72.330561,68.843559 C72.0670617,68.755298 71.7596458,68.6229066 71.45223,68.5346456 C71.2765638,68.4905151 71.056981,68.4022541 70.8813148,68.3581237 L71.2765638,66.8135566 C71.4961465,66.8576871 71.7157293,66.9459481 71.9353121,66.9900786 C72.2427279,67.0783396 72.5940603,67.210731 72.9014762,67.3431225 L72.330561,68.843559 Z M64.8647472,68.1816017 L64.5573313,66.5929042 C65.1282465,66.5046432 65.6552451,66.4163823 66.2261603,66.3722518 L66.35791,68.0050798 C65.8748279,68.0050798 65.3917458,68.0933407 64.8647472,68.1816017 Z M69.388152,68.0933407 C68.90507,68.0050798 68.3780713,67.9609493 67.8949893,67.9609493 L67.9389058,66.3281213 C68.509821,66.3281213 69.0807362,66.4163823 69.6077348,66.5046432 L69.388152,68.0933407 Z" id="Shape" fill="#4A555F"></path>
                    <ellipse id="Oval" fill="#FFFFFF" cx="89.1506004" cy="42.9830939" rx="14.4485456" ry="14.5189301"></ellipse>
                    <ellipse id="Oval" fill="#1559FF" cx="89.1506004" cy="42.9830939" rx="10.8473883" ry="10.9002302"></ellipse>
                    <path d="M89.8532652,58.3405032 L89.7654321,56.7076752 C90.2485142,56.6635447 90.7755128,56.6194142 91.2585949,56.5311533 L91.5220942,58.1198508 C90.9950956,58.2522422 90.4241804,58.2963727 89.8532652,58.3405032 Z M88.1405197,58.2963727 C87.5696045,58.2522422 86.9986894,58.2081118 86.4716907,58.0757203 L86.7351901,56.4870228 C87.2182721,56.5752838 87.7452707,56.6194142 88.2283528,56.6635447 L88.1405197,58.2963727 Z M93.1909232,57.8109374 L92.7517577,56.2663703 C93.2348397,56.1339789 93.7179218,55.9574569 94.2010039,55.780935 L94.8158356,57.2813715 C94.288837,57.4578935 93.7618384,57.6344154 93.1909232,57.8109374 Z M84.8467783,57.7226764 L84.6271956,57.6344154 C84.1441135,57.502024 83.704948,57.325502 83.2657824,57.1489801 L83.8806142,55.6485435 C84.2758631,55.8250655 84.7150287,55.9574569 85.1102776,56.0898484 L85.2859438,56.1339789 L84.8467783,57.7226764 Z M96.3529149,56.5311533 L95.6063335,55.1189777 C96.0454991,54.8983253 96.4846646,54.6335423 96.9238301,54.3246289 L97.8460777,55.6485435 C97.3190791,55.9574569 96.835997,56.2663703 96.3529149,56.5311533 Z M81.6847866,56.3987618 C81.2017045,56.1339789 80.7186224,55.8250655 80.2355404,55.4720216 L81.157788,54.148107 C81.5530369,54.4570204 81.9922024,54.7218033 82.431368,54.9865862 L81.6847866,56.3987618 Z M99.1196577,54.6335423 L98.0656604,53.3978887 C98.4609094,53.0448448 98.8122418,52.6918009 99.1635742,52.338757 L100.349321,53.4420192 C99.9979887,53.8391936 99.5588232,54.236368 99.1196577,54.6335423 Z M78.9619604,54.4128899 C78.5227948,54.0157155 78.1275459,53.6185412 77.7762135,53.2213668 L78.9619604,52.1622351 C79.3132928,52.5594095 79.6646252,52.9124534 80.0159576,53.2654973 L78.9619604,54.4128899 Z M101.447235,52.1181046 L100.173655,51.1472339 C100.481071,50.7500595 100.74457,50.3087547 101.008069,49.8674498 L102.413399,50.6617986 C102.105983,51.1913644 101.798567,51.6767997 101.447235,52.1181046 Z M76.6782997,51.8533217 C76.3708838,51.4120168 76.0634679,50.9265815 75.7560521,50.3970156 L77.1613817,49.6026669 C77.424881,50.0439717 77.6883804,50.4852766 77.9518797,50.882451 L76.6782997,51.8533217 Z M103.15998,49.161362 L101.666818,48.4994047 C101.8864,48.0580998 102.062067,47.5726645 102.193816,47.0872291 C102.281649,46.8224462 102.369483,46.5576633 102.413399,46.2928804 L103.994395,46.6900548 C103.906562,46.9989682 103.818729,47.2637511 103.730896,47.5726645 C103.555229,48.1022303 103.379563,48.6317962 103.15998,49.161362 Z M75.0533872,48.8965791 C74.8338045,48.3670133 74.6581383,47.8374474 74.4824721,47.3078816 L76.0195514,46.8665767 C76.151301,47.3520121 76.3269672,47.8374474 76.5026335,48.3228828 L75.0533872,48.8965791 Z M74.1311396,45.6309231 C74.0433065,45.0572268 73.9554734,44.4835304 73.9554734,43.9539646 L75.5803859,43.8657036 C75.6243024,44.351139 75.668219,44.8807048 75.7560521,45.3661402 L74.1311396,45.6309231 Z M104.301811,45.0130963 L102.720815,44.7924438 C102.808648,44.3070085 102.808648,43.7774427 102.852565,43.2920073 L104.477477,43.3361378 C104.43356,43.8657036 104.389644,44.4394 104.301811,45.0130963 Z M75.4925528,42.3211366 L73.8676403,42.2328756 C73.9115569,41.6591793 73.9554734,41.085483 74.0433065,40.5559171 L75.6243024,40.8207001 C75.5803859,41.3061354 75.5364693,41.7915708 75.4925528,42.3211366 Z M102.764732,41.7474403 C102.720815,41.2620049 102.632982,40.7324391 102.545149,40.2470037 L104.126145,39.9380903 C104.257894,40.5117866 104.301811,41.0413525 104.389644,41.6150488 L102.764732,41.7474403 Z M76.0195514,39.3202635 L74.4824721,38.8789586 C74.5263886,38.7465672 74.5703052,38.5700452 74.6142217,38.4376538 C74.7459714,38.0404794 74.877721,37.643305 75.0094707,37.2461306 L76.5026335,37.8639575 C76.3708838,38.2170013 76.2391341,38.5700452 76.151301,38.9230891 C76.0634679,39.0554806 76.0195514,39.1878721 76.0195514,39.3202635 Z M102.1499,38.7906977 C101.974234,38.3052623 101.798567,37.819827 101.622901,37.3785221 L103.072147,36.7165648 C103.29173,37.2461306 103.511313,37.7756965 103.686979,38.3052623 L102.1499,38.7906977 Z M77.1174652,36.4959124 L75.7121355,35.7456941 C75.9756348,35.2602588 76.2830507,34.7748234 76.5904666,34.289388 L77.9079631,35.2161283 C77.6444638,35.5691722 77.3809645,36.010477 77.1174652,36.4959124 Z M100.920236,36.010477 C100.656737,35.5691722 100.393238,35.1278673 100.085822,34.7306929 L101.359402,33.7598222 C101.710734,34.2011271 102.01815,34.6865624 102.281649,35.1719978 L100.920236,36.010477 Z M78.8741273,33.9804746 L77.6444638,32.921343 C77.9957962,32.4800381 78.4349617,32.0828637 78.8302107,31.6856893 L79.9281245,32.8772125 C79.5328755,33.2302564 79.1815431,33.5833003 78.8741273,33.9804746 Z M99.0757411,33.5833003 C98.7244087,33.2302564 98.3730763,32.8772125 97.9778273,32.5241686 L99.0318246,31.288515 C99.4709901,31.6415589 99.8662391,32.0387332 100.261488,32.4800381 L99.0757411,33.5833003 Z M81.1138714,31.9063418 L80.1477073,30.5824272 C80.5868728,30.2293833 81.0699549,29.9204699 81.5530369,29.655687 L82.3435349,31.0678625 C81.9482859,31.3326454 81.5091204,31.5974284 81.1138714,31.9063418 Z M96.7920804,31.5974284 C96.3529149,31.3326454 95.9137494,31.0678625 95.4745839,30.8030796 L96.2211653,29.390904 C96.7042473,29.655687 97.231246,29.9646004 97.6704115,30.2735138 L96.7920804,31.5974284 Z M83.7488645,30.4059052 L83.0901162,28.9054687 C83.6171149,28.6848163 84.1441135,28.4641638 84.6711121,28.3317724 L85.1541942,29.8763394 C84.6711121,30.0087309 84.18803,30.1852528 83.7488645,30.4059052 Z M94.0692542,30.1852528 C93.8057549,30.0969918 93.498339,29.9646004 93.1909232,29.8763394 C93.015257,29.8322089 92.7956742,29.7439479 92.620008,29.6998174 L93.015257,28.1552504 C93.2348397,28.1993809 93.4544225,28.2876419 93.6740053,28.3317724 C93.9814211,28.4200333 94.3327535,28.5524248 94.6401694,28.6848163 L94.0692542,30.1852528 Z M86.6034404,29.5232955 L86.2960245,27.934598 C86.8669397,27.846337 87.3939383,27.758076 87.9648535,27.7139456 L88.0966032,29.3467736 C87.6135211,29.3467736 87.130439,29.390904 86.6034404,29.5232955 Z M91.1707618,29.4350345 C90.6876797,29.3467736 90.1606811,29.3026431 89.677599,29.3026431 L89.7215156,27.6698151 C90.2924308,27.6698151 90.8633459,27.758076 91.3903446,27.846337 L91.1707618,29.4350345 Z" id="Shape" fill="#4A555F"></path>
                    <ellipse id="Oval" fill="#0BD4FF" cx="97.5825784" cy="6.66370347" rx="6.63139934" ry="6.66370347"></ellipse>
                    <ellipse id="Oval" fill="#0BD4FF" cx="126.304003" cy="52.9124534" rx="6.63139934" ry="6.66370347"></ellipse>
                    <ellipse id="Oval" fill="#0BD4FF" cx="123.010262" cy="22.8154615" rx="6.63139934" ry="6.66370347"></ellipse>
                    <rect id="Rectangle-path" fill="#4A555F" transform="translate(110.381616, 30.249633) rotate(58.974336) translate(-110.381616, -30.249633) " x="109.569194" y="24.1378206" width="1.62484317" height="12.2236238"></rect>
                    <rect id="Rectangle-path" fill="#4A555F" transform="translate(94.180148, 19.991671) rotate(14.845052) translate(-94.180148, -19.991671) " x="93.3677104" y="14.5637459" width="1.62487505" height="10.85585"></rect>
                    <rect id="Rectangle-path" fill="#4A555F" transform="translate(112.433483, 49.586815) rotate(11.894265) translate(-112.433483, -49.586815) " x="106.175564" y="48.7704259" width="12.5158384" height="1.63277858"></rect>
                    <ellipse id="Oval" fill="#00F1B7" cx="94.5523363" cy="108.649258" rx="6.63139934" ry="6.66370347"></ellipse>
                    <ellipse id="Oval" fill="#00F1B7" cx="40.3153947" cy="109.70839" rx="6.63139934" ry="6.66370347"></ellipse>
                    <ellipse id="Oval" fill="#00F1B7" cx="67.6754065" cy="122.329709" rx="6.63139934" ry="6.66370347"></ellipse>
                    <rect id="Rectangle-path" fill="#4A555F" transform="translate(67.835057, 107.319630) rotate(89.828128) translate(-67.835057, -107.319630) " x="61.4671283" y="106.503212" width="12.7358574" height="1.63283535"></rect>
                    <rect id="Rectangle-path" fill="#4A555F" transform="translate(84.802304, 98.174042) rotate(45.692815) translate(-84.802304, -98.174042) " x="79.400607" y="97.3576337" width="10.803394" height="1.63281625"></rect>
                    <rect id="Rectangle-path" fill="#4A555F" transform="translate(50.626129, 99.095711) rotate(42.742747) translate(-50.626129, -99.095711) " x="49.8136824" y="92.8071893" width="1.62489378" height="12.5770443"></rect>
                    <ellipse id="Oval" fill="#0BD4FF" cx="35.5284905" cy="6.66370347" rx="6.63139934" ry="6.66370347"></ellipse>
                    <ellipse id="Oval" fill="#0BD4FF" cx="6.8509821" cy="52.9124534" rx="6.63139934" ry="6.66370347"></ellipse>
                    <ellipse id="Oval" fill="#0BD4FF" cx="10.1008069" cy="22.8154615" rx="6.63139934" ry="6.66370347"></ellipse>
                    <rect id="Rectangle-path" fill="#4A555F" transform="translate(22.763416, 30.261850) rotate(31.030574) translate(-22.763416, -30.261850) " x="16.6809189" y="29.4454288" width="12.1649935" height="1.63284258"></rect>
                    <rect id="Rectangle-path" fill="#4A555F" transform="translate(38.951623, 19.985281) rotate(75.154948) translate(-38.951623, -19.985281) " x="33.5500116" y="19.1688855" width="10.8032233" height="1.63279045"></rect>
                    <rect id="Rectangle-path" fill="#4A555F" transform="translate(20.690291, 49.571824) rotate(78.105735) translate(-20.690291, -49.571824) " x="19.8778593" y="43.2834201" width="1.62486323" height="12.5768079"></rect>
                    <rect id="Rectangle-path" fill="#4A555F" x="62.7128361" y="43.4685292" width="8.60764418" height="1.632828"></rect>
                    <rect id="Rectangle-path" fill="#4A555F" transform="translate(56.554506, 62.627107) rotate(57.144278) translate(-56.554506, -62.627107) " x="52.2508856" y="61.8107313" width="8.60724068" height="1.63275146"></rect>
                    <rect id="Rectangle-path" fill="#4A555F" transform="translate(79.558457, 62.618634) rotate(32.855722) translate(-79.558457, -62.618634) " x="78.7460388" y="58.294049" width="1.62483625" height="8.6491699"></rect>
                </g>
                <g id="Group" transform="translate(111.971140, 92.127907)" fill="#4A555F">
                    <rect id="Rectangle-path" x="5.66887706" y="0.258604651" width="1.60113322" height="3.27565891"></rect>
                    <rect id="Rectangle-path" x="5.66887706" y="9.26666667" width="1.60113322" height="3.27565891"></rect>
                    <rect id="Rectangle-path" x="9.34715607" y="5.60310078" width="3.28881417" height="1.59472868"></rect>
                    <rect id="Rectangle-path" x="0.302917095" y="5.60310078" width="3.28881417" height="1.59472868"></rect>
                </g>
                <g id="Group" transform="translate(21.096012, 0.000000)" fill="#4A555F">
                    <rect id="Rectangle-path" x="51.1282409" y="0.309441463" width="1.62521041" height="3.35965017"></rect>
                    <rect id="Rectangle-path" x="51.1282409" y="9.54847943" width="1.62521041" height="3.35965017"></rect>
                    <rect id="Rectangle-path" x="54.8618324" y="5.79097595" width="3.33827002" height="1.63561916"></rect>
                    <rect id="Rectangle-path" x="45.6815898" y="5.79097595" width="3.33827002" height="1.63561916"></rect>
                    <g transform="translate(0.000000, 90.622143)" id="Rectangle-path">
                        <rect x="5.62234951" y="0" width="1.62521041" height="3.35965017"></rect>
                        <rect x="5.62234951" y="9.19483204" width="1.62521041" height="3.35965017"></rect>
                        <rect x="9.35594099" y="5.43732856" width="3.33827002" height="1.63561916"></rect>
                        <rect x="0.175698422" y="5.43732856" width="3.33827002" height="1.63561916"></rect>
                    </g>
                </g>
                <ellipse id="Oval" fill="#F68F6F" cx="132.255767" cy="91.3197674" rx="2.43415523" ry="2.4244186"></ellipse>
                <ellipse id="Oval" fill="#71CDE1" cx="9.7366209" cy="96.9767442" rx="3.2455403" ry="3.23255814"></ellipse>
                <ellipse id="Oval" fill="#E0E0E0" cx="61.6652657" cy="17.7790698" rx="1.62277015" ry="1.61627907"></ellipse>
            </g>
        </g>
    </g>
</svg>