<?xml version="1.0" encoding="UTF-8"?>
<svg width="191px" height="135px" viewBox="0 0 191 135" version="1.1" xmlns="http://www.w3.org/2000/svg" xmlns:xlink="http://www.w3.org/1999/xlink">
    <!-- Generator: Sketch 49.1 (51147) - http://www.bohemiancoding.com/sketch -->
    <title>horizontal-scalable-icn</title>
    <desc>Created with Sketch.</desc>
    <defs></defs>
    <g id="Website-V1" stroke="none" stroke-width="1" fill="none" fill-rule="evenodd">
        <g transform="translate(-142.000000, -579.000000)" id="horizontal-scalable-icn">
            <g transform="translate(142.000000, 579.000000)">
                <g id="MULTI-SIGNATURE-Copy-2" fill-rule="nonzero">
                    <path d="M22.1437509,135 C15.4190824,135 9.96521739,129.47044 9.96521739,122.652439 C9.96521739,115.834438 15.4190824,110.304878 22.1437509,110.304878 C26.4856628,110.304878 30.4039736,112.613335 32.5749295,116.317603 L46.4478677,116.317603 L48.1952225,118.08921 L49.6778265,118.08921 L53.119586,114.814422 L59.7913043,123.028234 L59.7913043,129.953606 L31.9395278,129.953606 C29.6626715,133.121023 26.0620616,135 22.1437509,135 Z" id="Shape" fill="#FFFFFF"></path>
                    <path d="M150.030707,26.3414634 C143.306039,26.3414634 137.852174,20.8119035 137.852174,13.9939024 C137.852174,7.17590138 143.306039,1.64634146 150.030707,1.64634146 C154.372619,1.64634146 158.29093,3.95479852 160.461886,7.65906681 L174.334824,7.65906681 L176.082179,9.43067338 L177.564783,9.43067338 L181.006543,6.15588547 L187.678261,14.3696978 L187.678261,21.2950689 L159.826484,21.2950689 C157.549628,24.4624867 154.001968,26.3414634 150.030707,26.3414634 Z" id="Shape" fill="#FFFFFF"></path>
                    <path d="M22.1437509,26.3414634 C15.4190824,26.3414634 9.96521739,20.8119035 9.96521739,13.9939024 C9.96521739,7.17590138 15.4190824,1.64634146 22.1437509,1.64634146 C26.4856628,1.64634146 30.4039736,3.95479852 32.5749295,7.65906681 L46.4478677,7.65906681 L48.1952225,9.43067338 L49.6778265,9.43067338 L53.119586,6.15588547 L59.7913043,14.3696978 L59.7913043,21.2950689 L31.9395278,21.2950689 C29.6626715,24.4624867 26.0620616,26.3414634 22.1437509,26.3414634 Z" id="Shape" fill="#FFFFFF"></path>
                    <path d="M150.030707,135 C143.306039,135 137.852174,129.47044 137.852174,122.652439 C137.852174,115.834438 143.306039,110.304878 150.030707,110.304878 C154.372619,110.304878 158.29093,112.613335 160.461886,116.317603 L174.334824,116.317603 L176.082179,118.08921 L177.564783,118.08921 L181.006543,114.814422 L187.678261,123.028234 L187.678261,129.953606 L159.826484,129.953606 C157.549628,133.121023 154.001968,135 150.030707,135 Z" id="Shape" fill="#FFFFFF"></path>
                    <g id="Group" transform="translate(3.321739, 32.926829)" fill="#4A555F">
                        <rect id="Rectangle-path" x="5.48086957" y="0.421463415" width="2.0484058" height="3.31902439"></rect>
                        <rect id="Rectangle-path" x="5.48086957" y="9.53560976" width="2.0484058" height="3.31902439"></rect>
                        <rect id="Rectangle-path" x="9.52231884" y="5.63707317" width="3.48782609" height="1.94926829"></rect>
                        <rect id="Rectangle-path" x="0" y="5.63707317" width="3.48782609" height="1.94926829"></rect>
                    </g>
                    <g id="Group" transform="translate(177.713043, 83.963415)" fill="#4A555F">
                        <rect id="Rectangle-path" x="5.58052174" y="0.368780488" width="1.96646957" height="3.31902439"></rect>
                        <rect id="Rectangle-path" x="5.58052174" y="9.4302439" width="1.96646957" height="3.31902439"></rect>
                        <rect id="Rectangle-path" x="9.46031304" y="5.58439024" width="3.34831304" height="1.94926829"></rect>
                        <rect id="Rectangle-path" x="0.26573913" y="5.58439024" width="3.34831304" height="1.94926829"></rect>
                    </g>
                    <g id="Group" transform="translate(78.060870, 120.182927)" fill="#4A555F">
                        <rect id="Rectangle-path" x="5.73996522" y="0.421463415" width="1.96646957" height="3.31902439"></rect>
                        <rect id="Rectangle-path" x="5.73996522" y="9.53560976" width="1.96646957" height="3.31902439"></rect>
                        <rect id="Rectangle-path" x="9.67290435" y="5.6897561" width="3.34831304" height="1.94926829"></rect>
                        <rect id="Rectangle-path" x="0.478330435" y="5.6897561" width="3.34831304" height="1.94926829"></rect>
                    </g>
                    <ellipse id="Oval" fill="#F68F6F" cx="179.373913" cy="44.4512195" rx="3.32173913" ry="3.29268293"></ellipse>
                    <ellipse id="Oval" fill="#E0E0E0" cx="6.64347826" cy="85.6097561" rx="6.64347826" ry="6.58536585"></ellipse>
                    <ellipse id="Oval" fill="#FFD552" cx="79.7217391" cy="8.23170732" rx="1.66086957" ry="1.64634146"></ellipse>
                    <path d="M97.2733037,100.426829 C97.0102998,100.426829 96.7472959,100.426829 96.4842921,100.426829 L96.5368928,98.502267 C97.1681022,98.502267 97.7993115,98.502267 98.4305208,98.502267 L98.4831216,100.426829 C98.0097146,100.426829 97.6415092,100.426829 97.2733037,100.426829 Z M94.4854625,100.322799 C93.8016524,100.270784 93.170443,100.218768 92.5392337,100.114738 L92.8022376,98.242191 C93.4334469,98.3462214 94.0646563,98.3982366 94.6432648,98.4502518 L94.4854625,100.322799 Z M100.37675,100.322799 L100.218947,98.4502518 C100.850157,98.3982366 101.481366,98.3462214 102.059975,98.242191 L102.322978,100.114738 C101.691769,100.166753 101.06056,100.270784 100.37675,100.322799 Z M90.5404041,99.8026469 C89.9091948,99.6986165 89.2253847,99.5425709 88.5941754,99.3865253 L89.0675824,97.5139782 C89.6987917,97.6700238 90.2774003,97.7740542 90.9086096,97.9300998 L90.5404041,99.8026469 Z M104.321808,99.7506317 L103.953603,97.8780846 C104.584812,97.7740542 105.16342,97.6180086 105.79463,97.461963 L106.268037,99.2824949 C105.584227,99.4905557 104.953017,99.6466013 104.321808,99.7506317 Z M86.7005474,98.8663734 C86.069338,98.6583126 85.4381287,98.4502518 84.8069193,98.242191 L85.4907295,96.4736743 C86.069338,96.6817351 86.6479466,96.8897959 87.2791559,97.0458415 L86.7005474,98.8663734 Z M108.161665,98.762343 L107.583056,96.9418111 C108.161665,96.7337503 108.740273,96.5777047 109.371483,96.3176287 L110.055293,98.0861454 C109.371483,98.3982366 108.740273,98.6062974 108.161665,98.762343 Z M83.0184929,97.5139782 C82.4398843,97.2539023 81.808675,96.9938263 81.2300664,96.6817351 L82.0716789,94.9652336 C82.6502874,95.2253096 83.1762952,95.4853856 83.7549038,95.7454616 L83.0184929,97.5139782 Z M111.843719,97.4099479 L111.054708,95.6934464 C111.633316,95.4333704 112.211925,95.1732944 112.737932,94.9132184 L113.632146,96.6297199 C113.053537,96.8377807 112.422328,97.1498719 111.843719,97.4099479 Z M79.44164,95.7454616 C78.8630314,95.4333704 78.2844229,95.069264 77.7584151,94.7051576 L78.8104307,93.0926865 C79.3364384,93.4047777 79.8624462,93.7688841 80.388454,94.0809753 L79.44164,95.7454616 Z M115.367971,95.6414312 L114.421157,93.9769449 C114.947165,93.6648537 115.473173,93.3527625 115.999181,92.9886561 L117.051196,94.549112 C116.472588,94.9132184 115.94658,95.2773248 115.367971,95.6414312 Z M76.127791,93.6128385 C75.6017832,93.2487321 75.0757754,92.8326105 74.5497676,92.416489 L75.7595855,90.9600634 C76.2329925,91.3241698 76.7590003,91.7402914 77.2324073,92.1043978 L76.127791,93.6128385 Z M118.68182,93.4567929 L117.524603,91.9483522 C117.99801,91.5842458 118.524018,91.2201394 118.997425,90.8040178 L120.259844,92.2604434 C119.733836,92.6765649 119.207828,93.0406713 118.68182,93.4567929 Z M73.0769459,91.116109 C72.6035388,90.6999875 72.1301318,90.2318507 71.6567248,89.7637139 L73.0243451,88.4113188 C73.4451513,88.8794556 73.9185583,89.2955771 74.3919653,89.7116987 L73.0769459,91.116109 Z M121.680065,90.9600634 L120.365045,89.5556531 C120.838452,89.1395315 121.259258,88.6713948 121.680065,88.2552732 L123.047685,89.5556531 C122.626879,90.0237899 122.153472,90.4919267 121.680065,90.9600634 Z M70.3417054,88.3072884 C69.9208992,87.8391516 69.5000929,87.3189997 69.0792867,86.7988477 L70.6047093,85.6024982 C70.9729147,86.0706349 71.393721,86.5387717 71.8145272,87.0069085 L70.3417054,88.3072884 Z M124.415305,88.0992276 L122.942483,86.8508629 C123.36329,86.3827261 123.731495,85.9145893 124.099701,85.3944374 L125.625123,86.5387717 C125.256918,87.1109389 124.836111,87.6310908 124.415305,88.0992276 Z M67.8694688,85.2383918 C67.5012634,84.7182398 67.1330579,84.1460727 66.7648525,83.6259207 L68.3954766,82.6376319 C68.7110813,83.1577839 69.0792867,83.6779359 69.4474922,84.1980878 L67.8694688,85.2383918 Z M126.834941,84.9783158 L125.256918,83.8859967 C125.625123,83.3658447 125.940728,82.8456927 126.256332,82.3255408 L127.886957,83.3138295 C127.571352,83.8859967 127.203146,84.4581638 126.834941,84.9783158 Z M65.8180385,81.9094192 C65.5024338,81.337252 65.1868292,80.7650849 64.9238253,80.1929177 L66.6596509,79.3606745 C66.9226548,79.9328417 67.1856587,80.4529937 67.5012634,81.0251608 L65.8180385,81.9094192 Z M64.0822128,78.424401 C63.8192089,77.8002186 63.6088058,77.2280515 63.3984027,76.6038691 L65.2394299,75.9796867 C65.449833,76.5518539 65.6602362,77.1240211 65.92324,77.6961882 L64.0822128,78.424401 Z M62.8197941,74.731322 C62.6619918,74.1071397 62.4515887,73.4829573 62.3463871,72.8587749 L64.2400151,72.4426534 C64.3978175,73.0668357 64.5556198,73.6390029 64.7134221,74.2111701 L62.8197941,74.731322 Z M61.9255809,70.8821975 C61.8203794,70.2580151 61.7151778,69.5818175 61.662577,68.9576352 L63.556205,68.7495744 C63.6088058,69.3737567 63.7140074,69.9979391 63.8192089,70.5701063 L61.9255809,70.8821975 Z M61.5047747,66.9810577 C61.4521739,66.3568753 61.4521739,65.6806778 61.4521739,65.0044802 L63.3984027,65.0044802 C63.3984027,65.6286626 63.3984027,66.2528449 63.4510035,66.8770273 L61.5047747,66.9810577 Z M63.3984027,63.1839483 L61.4521739,63.0799179 C61.5047747,62.4557356 61.5573755,61.779538 61.6099762,61.1553556 L63.5036043,61.3634164 C63.5036043,61.9355836 63.4510035,62.559766 63.3984027,63.1839483 Z M63.8192089,59.5428845 L61.9255809,59.2307934 C62.0307825,58.606611 62.135984,57.9304134 62.2937864,57.3062311 L64.1874144,57.7223526 C64.029612,58.2945198 63.9244105,58.9187022 63.8192089,59.5428845 Z M64.6608214,55.9018208 L62.8197941,55.3816688 C62.9775965,54.7574864 63.1879996,54.1333041 63.3984027,53.5091217 L65.2394299,54.1333041 C65.0290268,54.7054712 64.8186237,55.3296536 64.6608214,55.9018208 Z M65.8706393,52.4168026 L64.0822128,51.6885898 C64.3452167,51.0644074 64.6082206,50.4922403 64.8712245,49.9200731 L66.6070502,50.7523163 C66.3440463,51.2724682 66.0810424,51.8446354 65.8706393,52.4168026 Z M67.5012634,49.0358148 L65.8180385,48.0995412 C66.1336432,47.5273741 66.4492478,46.9552069 66.8174533,46.3830397 L68.4480774,47.3713285 C68.0798719,47.9955108 67.7642673,48.5156628 67.5012634,49.0358148 Z M69.4474922,45.914903 L67.8694688,44.8225838 C68.2376743,44.3024319 68.6584805,43.7822799 69.0266859,43.2621279 L70.5521085,44.4584774 C70.1839031,44.874599 69.8156976,45.394751 69.4474922,45.914903 Z M71.7619264,43.0020519 L70.2891046,41.7536872 C70.7099108,41.2855504 71.1833178,40.7653985 71.6567248,40.2972617 L73.0243451,41.6496568 C72.6035388,42.0657784 72.1827326,42.5339152 71.7619264,43.0020519 Z M120.365045,40.5053225 C119.891638,40.0892009 119.418231,39.6730793 118.944824,39.2569578 L120.207243,37.8005322 C120.733251,38.2166538 121.206658,38.6327754 121.680065,39.1009122 L120.365045,40.5053225 Z M74.3919653,40.3492769 L73.0769459,38.9448666 C73.5503529,38.528745 74.0763606,38.0606082 74.5497676,37.6444867 L75.7595855,39.1009122 C75.2861785,39.5170337 74.8127715,39.9331553 74.3919653,40.3492769 Z M117.472002,38.1126234 C116.998595,37.7485171 116.472588,37.3844107 115.94658,37.0723195 L116.998595,35.4598484 C117.524603,35.8239548 118.103212,36.1880611 118.62922,36.6041827 L117.472002,38.1126234 Z M77.2850081,38.008593 L76.127791,36.4481371 C76.6537988,36.0840308 77.1798065,35.6679092 77.7584151,35.355818 L78.8104307,36.9682891 C78.2844229,37.2803803 77.7584151,37.6444867 77.2850081,38.008593 Z M114.368557,36.0840308 C113.842549,35.7719396 113.26394,35.4598484 112.737932,35.1997724 L113.632146,33.4832709 C114.210754,33.7953621 114.789363,34.1074533 115.367971,34.4195445 L114.368557,36.0840308 Z M80.388454,35.9800004 L79.44164,34.3155141 C80.0202485,34.0034229 80.5988571,33.6913317 81.1774657,33.3792405 L82.0190781,35.095742 C81.4930703,35.355818 80.9144618,35.6679092 80.388454,35.9800004 Z M111.002107,34.3675293 C110.423498,34.1074533 109.84489,33.8993925 109.266281,33.6393165 L109.950091,31.8707998 C110.581301,32.0788606 111.159909,32.3389366 111.791118,32.5990126 L111.002107,34.3675293 Z M83.7549038,34.3155141 L82.9658921,32.5469974 C83.5445007,32.2869214 84.17571,32.0268454 84.8069193,31.8187846 L85.4907295,33.5873013 C84.8595201,33.8473773 84.2809116,34.0554381 83.7549038,34.3155141 Z M107.530455,33.0671493 C106.951847,32.8590885 106.320638,32.703043 105.742029,32.5469974 L106.215436,30.7264655 C106.846645,30.8825111 107.477855,31.0905719 108.109064,31.2466174 L107.530455,33.0671493 Z M87.2265551,33.0151341 L86.6479466,31.1946022 C87.2791559,30.9865415 87.9103652,30.8304959 88.5415746,30.6744503 L89.0149816,32.5469974 C88.436373,32.6510278 87.8051637,32.8590885 87.2265551,33.0151341 Z M103.901002,32.182891 C103.269792,32.0788606 102.691184,31.9748302 102.059975,31.8707998 L102.322978,29.9982527 C102.954188,30.1022831 103.637998,30.2063135 104.269207,30.3103439 L103.901002,32.182891 Z M90.8560088,32.1308758 L90.4878034,30.2583287 C91.1190127,30.1542983 91.8028228,30.0502679 92.4340322,29.9462375 L92.697036,31.8187846 C92.1184275,31.922815 91.4872181,32.0268454 90.8560088,32.1308758 Z M100.166347,31.662739 C99.5351372,31.6107238 98.9039278,31.5587086 98.2727185,31.5587086 L98.3253193,29.6341463 C99.0091294,29.6341463 99.6403387,29.6861615 100.324149,29.7381767 L100.166347,31.662739 Z M94.5906641,31.6107238 L94.4328617,29.7381767 C95.0640711,29.6861615 95.7478812,29.6341463 96.4316913,29.6341463 L96.4842921,31.5587086 C95.8004819,31.5587086 95.1692726,31.5587086 94.5906641,31.6107238 Z" id="Shape" fill="#4A555F"></path>
                    <path d="M124.565217,82.0404001 C119.095956,91.0966479 109.147109,97.1341463 97.7397927,97.1341463 C80.4465093,97.1341463 66.4347826,83.1333956 66.4347826,65.8536585 C66.4347826,48.5739215 80.4465093,34.5731707 97.7397927,34.5731707 C106.438523,34.5731707 114.303841,38.112394 119.981456,43.8376081 C119.981456,43.8376081 117.220781,46.4920255 117.220781,49.2505377 L117.220781,55.8085102 L113.782959,55.8085102 L113.782959,82.0404001 L124.565217,82.0404001 Z" id="Shape" fill="#1559FF"></path>
                    <rect id="Rectangle-path" fill="#0BD4FF" x="117.921739" y="59.2682927" width="23.2521739" height="18.1097561"></rect>
                    <path d="M137.852174,57.6219512 L135.840347,57.6219512 L135.840347,51.7269866 C135.840347,47.9032258 132.632298,44.7698662 128.717391,44.7698662 C124.802484,44.7698662 121.594436,47.9032258 121.594436,51.7269866 L121.594436,57.6219512 L119.582609,57.6219512 L119.582609,51.7269866 C119.582609,46.84107 123.660637,42.804878 128.717391,42.804878 C133.774146,42.804878 137.852174,46.7879622 137.852174,51.7269866 L137.852174,57.6219512 Z" id="Shape" fill="#4A555F"></path>
                    <polygon id="Shape" fill="#4A555F" points="33.5269321 107.012195 31.5565217 107.012195 31.5565217 72.4390244 58.1304348 72.4390244 58.1304348 74.3890355 33.5269321 74.3890355"></polygon>
                    <polygon id="Shape" fill="#4A555F" points="58.1304348 60.9146341 31.5565217 60.9146341 31.5565217 26.3414634 33.5269321 26.3414634 33.5269321 59.017326 58.1304348 59.017326"></polygon>
                    <path d="M21.5913043,131.707317 C16.1024413,131.707317 11.626087,127.270119 11.626087,121.829268 C11.626087,116.388418 16.1024413,111.95122 21.5913043,111.95122 C27.0801674,111.95122 31.5565217,116.388418 31.5565217,121.829268 C31.5565217,127.270119 27.0801674,131.707317 21.5913043,131.707317 Z M21.5913043,113.852876 C17.1682399,113.852876 13.5445245,117.444894 13.5445245,121.829268 C13.5445245,126.213643 17.1682399,129.805661 21.5913043,129.805661 C26.0143688,129.805661 29.6380842,126.213643 29.6380842,121.829268 C29.6380842,117.39207 26.0143688,113.852876 21.5913043,113.852876 Z" id="Shape" fill="#4A555F"></path>
                    <path d="M19.9304348,125.121951 C18.1088359,125.121951 16.6086957,123.634933 16.6086957,121.829268 C16.6086957,120.023603 18.1088359,118.536585 19.9304348,118.536585 C21.7520337,118.536585 23.2521739,120.023603 23.2521739,121.829268 C23.2521739,123.634933 21.8056101,125.121951 19.9304348,125.121951 Z M19.9304348,120.448466 C19.1803647,120.448466 18.5910238,121.032651 18.5910238,121.776161 C18.5910238,122.51967 19.1803647,123.103855 19.9304348,123.103855 C20.6805049,123.103855 21.2698457,122.51967 21.2698457,121.776161 C21.2698457,121.032651 20.6805049,120.448466 19.9304348,120.448466 Z" id="Shape" fill="#4A555F"></path>
                    <path d="M56.4695652,126.768293 L28.2347826,126.768293 L28.9058103,125.261472 C29.4736031,124.0895 29.7316906,122.805912 29.7316906,121.522323 C29.7316906,120.573584 29.5768381,119.624845 29.267133,118.676106 L28.8025753,117.336709 L35.0999126,117.336709 L36.1838805,118.899339 L37.1646133,117.336709 L44.6491535,117.336709 L46.3525316,119.178379 L49.5528177,119.178379 L51.8239886,116.890244 L56.3147127,122.805912 L56.3147127,126.768293 L56.4695652,126.768293 Z M31.1769812,124.759198 L54.559717,124.759198 L54.559717,123.531418 L51.772371,119.848078 L50.4303156,121.243282 L45.6815039,121.243282 L43.9781257,119.401612 L38.2485812,119.401612 L36.338733,122.471062 L34.2224148,119.401612 L31.4350688,119.401612 C31.5899213,120.127119 31.6415388,120.852625 31.6415388,121.578131 C31.6415388,122.638487 31.4866863,123.698842 31.1769812,124.759198 Z" id="Shape" fill="#4A555F"></path>
                    <path d="M21.3870991,135 C14.1599341,135 8.30434783,129.105035 8.30434783,121.829268 C8.30434783,114.553501 14.1599341,108.658537 21.3870991,108.658537 C25.7656005,108.658537 29.9330898,110.942172 32.3069761,114.606609 L45.9700107,114.606609 L47.7108607,116.359166 L48.39665,116.359166 L52.3003742,112.694729 L59.7913043,121.882376 L59.7913043,130.060976 L31.5684337,130.060976 C29.1417944,133.194335 25.4490823,135 21.3870991,135 Z M21.3870991,110.570417 C15.2149947,110.570417 10.2034569,115.615657 10.2034569,121.829268 C10.2034569,128.04288 15.2149947,133.08812 21.3870991,133.08812 C24.9743051,133.08812 28.2449929,131.441778 30.355114,128.52085 L30.6188792,128.149095 L57.9449483,128.149095 L57.9449483,122.625885 L52.1421151,115.456334 L49.1879455,118.271046 L46.9195652,118.271046 L45.1787153,116.518489 L31.2519155,116.518489 L30.9881504,116.040519 C28.9835353,112.641621 25.2908232,110.570417 21.3870991,110.570417 Z" id="Shape" fill="#00F1B7"></path>
                    <path d="M21.456955,131.707317 C16.0420918,131.707317 11.626087,127.270119 11.626087,121.829268 C11.626087,116.388418 16.0420918,111.95122 21.456955,111.95122 C25.3998165,111.95122 28.9221061,114.275466 30.4466792,117.867484 L34.8626841,117.867484 L35.9666854,119.34655 L36.9655436,117.867484 L44.5884092,117.867484 L46.3232683,119.610669 L49.5827004,119.610669 L51.8958459,117.444894 L56.4695652,123.044215 L56.4695652,126.794705 L29.8683929,126.794705 C28.1861053,129.805661 25.0318161,131.707317 21.456955,131.707317 Z M21.456955,113.852876 C17.0935216,113.852876 13.5186605,117.444894 13.5186605,121.829268 C13.5186605,126.213643 17.0935216,129.805661 21.456955,129.805661 C24.5061012,129.805661 27.2398185,128.115299 28.5541057,125.315638 C28.5541057,125.315638 28.5541057,125.315638 28.5541057,125.315638 L29.3952495,125.738229 L29.3952495,124.893048 L54.6295632,124.893048 L54.6295632,123.730925 L51.7907029,120.244555 L50.4238442,121.565149 L45.5872674,121.565149 L43.8524084,119.821964 L38.0169733,119.821964 L36.0718283,122.727273 L33.9163974,119.821964 L29.8158214,119.821964 L29.8158214,119.029607 L28.9746776,119.34655 C27.8706764,116.018651 24.8741016,113.852876 21.456955,113.852876 Z" id="Shape" fill="#4A555F"></path>
                    <path d="M21.5913043,23.0487805 C16.1024413,23.0487805 11.626087,18.6115821 11.626087,13.1707317 C11.626087,7.72988131 16.1024413,3.29268293 21.5913043,3.29268293 C27.0801674,3.29268293 31.5565217,7.72988131 31.5565217,13.1707317 C31.5565217,18.6115821 27.0801674,23.0487805 21.5913043,23.0487805 Z M21.5913043,5.19433938 C17.1682399,5.19433938 13.5445245,8.78635711 13.5445245,13.1707317 C13.5445245,17.5551063 17.1682399,21.147124 21.5913043,21.147124 C26.0143688,21.147124 29.6380842,17.5551063 29.6380842,13.1707317 C29.6380842,8.78635711 26.0143688,5.19433938 21.5913043,5.19433938 Z" id="Shape" fill="#4A555F"></path>
                    <path d="M19.9304348,16.4634146 C18.1088359,16.4634146 16.6086957,14.9763965 16.6086957,13.1707317 C16.6086957,11.3650669 18.1088359,9.87804878 19.9304348,9.87804878 C21.7520337,9.87804878 23.2521739,11.3650669 23.2521739,13.1707317 C23.2521739,14.9763965 21.8056101,16.4634146 19.9304348,16.4634146 Z M19.9304348,11.7899292 C19.1803647,11.7899292 18.5910238,12.3741149 18.5910238,13.1176239 C18.5910238,13.861133 19.1803647,14.4453186 19.9304348,14.4453186 C20.6805049,14.4453186 21.2698457,13.861133 21.2698457,13.1176239 C21.3234222,12.3741149 20.6805049,11.7899292 19.9304348,11.7899292 Z" id="Shape" fill="#4A555F"></path>
                    <path d="M21.5913043,23.0487805 C16.1024413,23.0487805 11.626087,18.6115821 11.626087,13.1707317 C11.626087,7.72988131 16.1024413,3.29268293 21.5913043,3.29268293 C27.0801674,3.29268293 31.5565217,7.72988131 31.5565217,13.1707317 C31.5565217,18.6115821 27.0801674,23.0487805 21.5913043,23.0487805 Z M21.5913043,5.19433938 C17.1682399,5.19433938 13.5445245,8.78635711 13.5445245,13.1707317 C13.5445245,17.5551063 17.1682399,21.147124 21.5913043,21.147124 C26.0143688,21.147124 29.6380842,17.5551063 29.6380842,13.1707317 C29.6380842,8.78635711 26.0143688,5.19433938 21.5913043,5.19433938 Z" id="Shape" fill="#4A555F"></path>
                    <path d="M19.9304348,16.4634146 C18.1088359,16.4634146 16.6086957,14.9763965 16.6086957,13.1707317 C16.6086957,11.3650669 18.1088359,9.87804878 19.9304348,9.87804878 C21.7520337,9.87804878 23.2521739,11.3650669 23.2521739,13.1707317 C23.2521739,14.9763965 21.8056101,16.4634146 19.9304348,16.4634146 Z M19.9304348,11.7899292 C19.1803647,11.7899292 18.5910238,12.3741149 18.5910238,13.1176239 C18.5910238,13.861133 19.1803647,14.4453186 19.9304348,14.4453186 C20.6805049,14.4453186 21.2698457,13.861133 21.2698457,13.1176239 C21.3234222,12.3741149 20.6805049,11.7899292 19.9304348,11.7899292 Z" id="Shape" fill="#4A555F"></path>
                    <path d="M56.4695652,18.1097561 L28.2347826,18.1097561 L28.9058103,16.6029351 C29.4736031,15.4309632 29.7316906,14.1473749 29.7316906,12.8637867 C29.7316906,11.9150475 29.5768381,10.9663084 29.267133,10.0175692 L28.8025753,8.6781728 L35.0999126,8.6781728 L36.1838805,10.240802 L37.1646133,8.6781728 L44.6491535,8.6781728 L46.3525316,10.5198429 L49.5528177,10.5198429 L51.8239886,8.23170732 L56.3147127,14.1473749 L56.3147127,18.1097561 L56.4695652,18.1097561 Z M31.1769812,16.1006614 L54.559717,16.1006614 L54.559717,14.8728814 L51.772371,11.1895411 L50.4303156,12.5847458 L45.6815039,12.5847458 L43.9781257,10.7430757 L38.2485812,10.7430757 L36.338733,13.8125258 L34.2224148,10.7430757 L31.4350688,10.7430757 C31.5899213,11.4685821 31.6415388,12.1940885 31.6415388,12.9195949 C31.6415388,13.9799504 31.4866863,15.0403059 31.1769812,16.1006614 Z" id="Shape" fill="#4A555F"></path>
                    <polygon id="Shape" fill="#4A555F" points="166.086957 107.012195 164.265902 107.012195 164.265902 74.3890355 146.156522 74.3890355 146.156522 72.4390244 166.086957 72.4390244"></polygon>
                    <polygon id="Shape" fill="#4A555F" points="166.086957 60.9146341 146.156522 60.9146341 146.156522 59.017326 164.265902 59.017326 164.265902 26.3414634 166.086957 26.3414634"></polygon>
                    <path d="M151.13913,131.707317 C145.650267,131.707317 141.173913,127.270119 141.173913,121.829268 C141.173913,116.388418 145.650267,111.95122 151.13913,111.95122 C156.627993,111.95122 161.104348,116.388418 161.104348,121.829268 C161.104348,127.270119 156.627993,131.707317 151.13913,131.707317 Z M151.13913,113.852876 C146.716066,113.852876 143.092351,117.444894 143.092351,121.829268 C143.092351,126.213643 146.716066,129.805661 151.13913,129.805661 C155.562195,129.805661 159.18591,126.213643 159.18591,121.829268 C159.18591,117.39207 155.562195,113.852876 151.13913,113.852876 Z" id="Shape" fill="#4A555F"></path>
                    <path d="M147.817391,125.121951 C145.995792,125.121951 144.495652,123.634933 144.495652,121.829268 C144.495652,120.023603 145.995792,118.536585 147.817391,118.536585 C149.63899,118.536585 151.13913,120.023603 151.13913,121.829268 C151.13913,123.634933 149.63899,125.121951 147.817391,125.121951 Z M147.817391,120.448466 C147.067321,120.448466 146.47798,121.032651 146.47798,121.776161 C146.47798,122.51967 147.067321,123.103855 147.817391,123.103855 C148.567461,123.103855 149.156802,122.51967 149.156802,121.776161 C149.156802,121.032651 148.567461,120.448466 147.817391,120.448466 Z" id="Shape" fill="#4A555F"></path>
                    <path d="M184.356522,126.768293 L156.121739,126.768293 L156.792767,125.261472 C157.36056,124.0895 157.618647,122.805912 157.618647,121.522323 C157.618647,120.573584 157.463795,119.624845 157.15409,118.676106 L156.689532,117.336709 L162.986869,117.336709 L164.070837,118.899339 L165.05157,117.336709 L172.53611,117.336709 L174.239488,119.178379 L177.439774,119.178379 L179.710945,116.890244 L184.201669,122.805912 L184.201669,126.768293 L184.356522,126.768293 Z M159.063938,124.759198 L182.446674,124.759198 L182.446674,123.531418 L179.659328,119.848078 L178.317272,121.243282 L173.56846,121.243282 L171.865082,119.401612 L166.135538,119.401612 L164.22569,122.471062 L162.109371,119.401612 L159.322025,119.401612 C159.476878,120.127119 159.528495,120.852625 159.528495,121.578131 C159.528495,122.638487 159.373643,123.698842 159.063938,124.759198 Z" id="Shape" fill="#4A555F"></path>
                    <path d="M151.13913,23.0487805 C145.650267,23.0487805 141.173913,18.6115821 141.173913,13.1707317 C141.173913,7.72988131 145.650267,3.29268293 151.13913,3.29268293 C156.627993,3.29268293 161.104348,7.72988131 161.104348,13.1707317 C161.104348,18.6115821 156.627993,23.0487805 151.13913,23.0487805 Z M151.13913,5.19433938 C146.716066,5.19433938 143.092351,8.78635711 143.092351,13.1707317 C143.092351,17.5551063 146.716066,21.147124 151.13913,21.147124 C155.562195,21.147124 159.18591,17.5551063 159.18591,13.1707317 C159.18591,8.78635711 155.562195,5.19433938 151.13913,5.19433938 Z" id="Shape" fill="#4A555F"></path>
                    <path d="M147.817391,16.4634146 C145.995792,16.4634146 144.495652,14.9763965 144.495652,13.1707317 C144.495652,11.3650669 145.995792,9.87804878 147.817391,9.87804878 C149.63899,9.87804878 151.13913,11.3650669 151.13913,13.1707317 C151.13913,14.9763965 149.63899,16.4634146 147.817391,16.4634146 Z M147.817391,11.7899292 C147.067321,11.7899292 146.47798,12.3741149 146.47798,13.1176239 C146.47798,13.861133 147.067321,14.4453186 147.817391,14.4453186 C148.567461,14.4453186 149.156802,13.861133 149.156802,13.1176239 C149.156802,12.3741149 148.567461,11.7899292 147.817391,11.7899292 Z" id="Shape" fill="#4A555F"></path>
                    <path d="M184.356522,18.1097561 L156.121739,18.1097561 L156.792767,16.6029351 C157.36056,15.4309632 157.618647,14.1473749 157.618647,12.8637867 C157.618647,11.9150475 157.463795,10.9663084 157.15409,10.0175692 L156.689532,8.6781728 L162.986869,8.6781728 L164.070837,10.240802 L165.05157,8.6781728 L172.53611,8.6781728 L174.239488,10.5198429 L177.439774,10.5198429 L179.710945,8.23170732 L184.201669,14.1473749 L184.356522,18.1097561 Z M159.063938,16.1006614 L182.446674,16.1006614 L182.446674,14.8728814 L179.659328,11.1895411 L178.317272,12.5847458 L173.56846,12.5847458 L171.865082,10.7430757 L166.135538,10.7430757 L164.22569,13.8125258 L162.109371,10.7430757 L159.322025,10.7430757 C159.476878,11.4685821 159.528495,12.1940885 159.528495,12.9195949 C159.528495,13.9799504 159.373643,15.0403059 159.063938,16.1006614 Z" id="Shape" fill="#4A555F"></path>
                    <path d="M150.934925,26.3414634 C143.70776,26.3414634 137.852174,20.4464988 137.852174,13.1707317 C137.852174,5.89496459 143.70776,0 150.934925,0 C155.313427,0 159.480916,2.28363493 161.854802,5.94807238 L175.517837,5.94807238 L177.258687,7.70062943 L177.944476,7.70062943 L181.8482,4.03619197 L189.33913,13.2238395 L189.33913,21.402439 L161.11626,21.402439 C158.68962,24.5357986 154.996908,26.3414634 150.934925,26.3414634 Z M150.934925,1.91188041 C144.762821,1.91188041 139.751283,6.95712038 139.751283,13.1707317 C139.751283,19.384343 144.762821,24.429583 150.934925,24.429583 C154.522131,24.429583 157.792819,22.7832415 159.90294,19.8623131 L160.166705,19.4905586 L187.440021,19.4905586 L187.440021,13.9673485 L181.689941,6.79779701 L178.735772,9.61250983 L176.467391,9.61250983 L174.726541,7.85995279 L160.799742,7.85995279 L160.535976,7.38198269 C158.531361,3.98308419 154.838649,1.91188041 150.934925,1.91188041 Z" id="Shape" fill="#00F1B7"></path>
                    <path d="M21.3870991,26.3414634 C14.1599341,26.3414634 8.30434783,20.4464988 8.30434783,13.1707317 C8.30434783,5.89496459 14.1599341,0 21.3870991,0 C25.7656005,0 29.9330898,2.28363493 32.3069761,5.94807238 L45.9700107,5.94807238 L47.7108607,7.70062943 L48.39665,7.70062943 L52.3003742,4.03619197 L59.7913043,13.2238395 L59.7913043,21.402439 L31.5684337,21.402439 C29.1417944,24.5357986 25.4490823,26.3414634 21.3870991,26.3414634 Z M21.3870991,1.91188041 C15.2149947,1.91188041 10.2034569,6.95712038 10.2034569,13.1707317 C10.2034569,19.384343 15.2149947,24.429583 21.3870991,24.429583 C24.9743051,24.429583 28.2449929,22.7832415 30.355114,19.8623131 L30.6188792,19.4905586 L57.8921953,19.4905586 L57.8921953,13.9673485 L52.1421151,6.79779701 L49.1879455,9.61250983 L46.9195652,9.61250983 L45.1787153,7.85995279 L31.2519155,7.85995279 L30.9881504,7.38198269 C28.9835353,3.98308419 25.2908232,1.91188041 21.3870991,1.91188041 Z" id="Shape" fill="#00F1B7"></path>
                    <path d="M150.921534,135 C143.701767,135 137.852174,129.105035 137.852174,121.829268 C137.852174,114.553501 143.701767,108.658537 150.921534,108.658537 C155.295554,108.658537 159.458778,110.942172 161.830235,114.606609 L175.531983,114.606609 L177.271052,116.359166 L177.956139,116.359166 L181.855868,112.694729 L189.33913,121.882376 L189.33913,130.060976 L161.145147,130.060976 C158.668292,133.194335 154.97936,135 150.921534,135 Z M150.921534,110.570417 C144.755747,110.570417 139.749339,115.615657 139.749339,121.829268 C139.749339,128.04288 144.755747,133.08812 150.921534,133.08812 C154.505069,133.08812 157.772409,131.441778 159.88037,128.52085 L160.143865,128.149095 L187.389266,128.149095 L187.389266,122.625885 L181.645071,115.562549 L178.693926,118.377262 L176.427867,118.377262 L174.688799,116.624705 L160.776254,116.624705 L160.512759,116.146735 C158.510195,112.641621 154.821263,110.570417 150.921534,110.570417 Z" id="Shape" fill="#00F1B7"></path>
                    <path d="M151.004781,23.0487805 C145.589918,23.0487805 141.173913,18.6115821 141.173913,13.1707317 C141.173913,7.72988131 145.589918,3.29268293 151.004781,3.29268293 C154.947643,3.29268293 158.469932,5.6169297 159.994505,9.20894744 L164.41051,9.20894744 L165.514511,10.6880136 L166.51337,9.20894744 L174.136235,9.20894744 L175.871094,10.9521325 L179.130527,10.9521325 L181.443672,8.78635711 L186.017391,14.3856789 L186.017391,18.136168 L159.416219,18.136168 C157.786503,21.147124 154.579642,23.0487805 151.004781,23.0487805 Z M151.004781,5.19433938 C146.641348,5.19433938 143.066487,8.78635711 143.066487,13.1707317 C143.066487,17.5551063 146.641348,21.147124 151.004781,21.147124 C154.053927,21.147124 156.787645,19.403939 158.101932,16.6571019 C158.101932,16.6571019 158.101932,16.6571019 158.101932,16.6571019 L158.943076,17.0796922 L158.943076,16.2345115 L184.177389,16.2345115 L184.177389,15.0723882 L181.338529,11.586018 L179.97167,12.9066128 L175.135094,12.9066128 L173.400234,11.1634277 L167.564799,11.1634277 L165.619654,14.0687361 L163.464223,11.1634277 L159.363647,11.1634277 L159.363647,10.3710708 L158.522504,10.6880136 C157.418502,7.36011478 154.421928,5.19433938 151.004781,5.19433938 Z" id="Shape" fill="#4A555F"></path>
                    <rect id="Rectangle-path" fill="#4A555F" x="31.5565217" y="13.1707317" width="19.9304348" height="1.64634146"></rect>
                    <rect id="Rectangle-path" fill="#4A555F" x="159.443478" y="13.1707317" width="19.9304348" height="1.64634146"></rect>
                    <rect id="Rectangle-path" fill="#4A555F" x="159.443478" y="121.829268" width="19.9304348" height="1.64634146"></rect>
                    <rect id="Rectangle-path" fill="#4A555F" x="31.5565217" y="121.829268" width="19.9304348" height="1.64634146"></rect>
                    <path d="M132.869565,74.0853659 L124.565217,74.0853659 L126.237234,68.3231707 C125.456959,67.7218982 125.011088,66.8199894 125.011088,65.8679745 C125.011088,64.0140509 126.683105,62.5609756 128.689524,62.5609756 C130.751678,62.5609756 132.36796,64.0641569 132.36796,65.8679745 C132.36796,66.8199894 131.922089,67.6717922 131.141815,68.3231707 L132.869565,74.0853659 Z M127.18471,72.2314422 L130.250073,72.2314422 L128.856726,67.521474 L129.525533,67.1707317 C130.027137,66.9202015 130.361541,66.419141 130.361541,65.8679745 C130.361541,65.0662778 129.637,64.3647932 128.689524,64.3647932 C127.797782,64.3647932 127.017508,65.0161718 127.017508,65.8679745 C127.017508,66.419141 127.351911,66.8700954 127.853516,67.1707317 L128.522323,67.521474 L127.18471,72.2314422 Z" id="Shape" fill="#4A555F"></path>
                </g>
                <path d="M97.9806136,46.097561 L79.7217391,55.9751297 L79.7217391,75.7320863 L97.9806136,85.6097561 L115.636296,76.0590243 L115.63737,76.0608434 L115.892658,75.9202651 L116.058767,75.8303193 L116.240025,75.7320863 L116.240025,75.7288523 L116.26087,75.7174322 L116.240025,75.6837783 L116.240025,55.9751297 L97.9806136,46.097561 Z M98.1590787,46.9781206 L114.681223,55.9159069 L92.7003695,55.9159069 L98.1590787,46.9781206 Z M80.8473259,56.1500693 L97.0905448,47.3631696 L86.2581149,65.1001853 L80.8473259,56.1500693 Z M104.345508,56.5955539 L115.517247,56.5955539 L115.517247,74.5238813 L104.345508,56.5955539 Z M92.5062176,56.5955539 L102.787566,56.5955539 L92.5062176,62.0946806 L92.5062176,56.5955539 Z M80.4441948,56.8580138 L91.4978526,75.1416778 L80.4441948,75.1416778 L80.4441948,56.8580138 Z M98.7213348,59.5520432 L103.693321,56.8927794 L108.715162,64.9520273 L98.7213348,59.5520432 Z M86.7406474,65.6745248 L91.7838694,57.4168907 L91.7838694,68.3995805 L86.7406474,65.6745248 Z M98.1322176,60.0175381 L102.489193,62.3717946 L96.694505,62.3717946 L98.1322176,60.0175381 Z M92.6467548,62.8013112 L97.0310207,60.4563525 L94.1153039,65.2304552 L92.6467548,62.8013112 Z M100.617297,63.0512394 L103.471341,63.0512394 L103.471341,67.7722841 L100.617297,63.0512394 Z M94.5298241,65.9161658 L96.2794476,63.0512394 L99.7860007,63.0512394 L101.430114,65.7706355 L99.6730767,68.6475884 L96.1809211,68.6475884 L94.5298241,65.9161658 Z M104.193689,63.2926782 L109.198661,65.997016 L104.193689,74.1920923 L104.193689,63.2926782 Z M92.5062176,63.9435223 L95.3498392,68.6475884 L92.5062176,68.6475884 L92.5062176,63.9435223 Z M101.844527,66.4562451 L103.3192,68.8954953 L98.9167761,71.2502571 L101.844527,66.4562451 Z M109.702468,66.5363879 L115.270663,75.4725572 L98.8052489,84.3795194 L109.702468,66.5363879 Z M87.2435943,66.7302262 L97.2546123,72.139306 L92.1608915,74.8639574 L87.2435943,66.7302262 Z M93.5002925,69.3270332 L99.2581267,69.3270332 L97.8295469,71.6661303 L93.5002925,69.3270332 Z M103.471341,69.5959612 L103.471341,75.1416778 L93.1036081,75.1416778 L103.471341,69.5959612 Z M81.335553,75.8214258 L103.198648,75.8214258 L97.7693781,84.7112073 L81.335553,75.8214258 Z" id="Fill-3-Copy-2" stroke="#FFFFFF" stroke-width="0.75" fill="#FFFFFF"></path>
            </g>
        </g>
    </g>
</svg>