<?xml version="1.0" encoding="UTF-8"?>
<svg width="237px" height="137px" viewBox="0 0 237 137" version="1.1" xmlns="http://www.w3.org/2000/svg" xmlns:xlink="http://www.w3.org/1999/xlink">
    <!-- Generator: Sketch 49.1 (51147) - http://www.bohemiancoding.com/sketch -->
    <title>mobile-compatible-icn</title>
    <desc>Created with Sketch.</desc>
    <defs></defs>
    <g id="Website-V1" stroke="none" stroke-width="1" fill="none" fill-rule="evenodd">
        <g transform="translate(-602.000000, -939.000000)" fill-rule="nonzero" id="mobile-compatible-icn">
            <g transform="translate(602.000000, 939.000000)">
                <g id="Group" transform="translate(0.000000, 0.068493)">
                    <path d="M57.040678,124.869452 L20.5438257,124.869452 C15.7234867,124.869452 11.7639225,120.981575 11.7639225,116.121729 L11.7639225,25.7285959 C11.7639225,20.9259247 15.6661017,16.9808733 20.5438257,16.9808733 L57.040678,16.9808733 C61.8610169,16.9808733 65.8205811,20.86875 65.8205811,25.7285959 L65.8205811,116.121729 C65.7631961,120.981575 61.8610169,124.869452 57.040678,124.869452 Z" id="Shape" fill="#FFFFFF"></path>
                    <path d="M133.190557,124.869452 L96.6937046,124.869452 C91.8733656,124.869452 87.9138015,120.981575 87.9138015,116.121729 L87.9138015,25.7285959 C87.9138015,20.9259247 91.8159806,16.9808733 96.6937046,16.9808733 L133.190557,16.9808733 C138.010896,16.9808733 141.97046,20.86875 141.97046,25.7285959 L141.97046,116.121729 C141.913075,120.981575 138.010896,124.869452 133.190557,124.869452 Z" id="Shape" fill="#FFFFFF"></path>
                    <path d="M209.340436,124.869452 L172.843584,124.869452 C168.023245,124.869452 164.06368,120.981575 164.06368,116.121729 L164.06368,25.7285959 C164.06368,20.9259247 167.96586,16.9808733 172.843584,16.9808733 L209.340436,16.9808733 C214.160775,16.9808733 218.120339,20.86875 218.120339,25.7285959 L218.120339,116.121729 C218.120339,120.981575 214.21816,124.869452 209.340436,124.869452 Z" id="Shape" fill="#FFFFFF"></path>
                    <path d="M138.469976,25.7857705 L138.469976,38.1926712 C129.690073,36.6489555 122.803874,29.5021233 121.770944,20.5828767 L133.247942,20.5828767 C136.059806,20.5257021 138.469976,22.869863 138.469976,25.7857705 Z" id="Shape" fill="#71CDE1"></path>
                    <path d="M133.190557,125.898596 L96.6937046,125.898596 C91.2995157,125.898596 86.8808717,121.496147 86.8808717,116.121729 L86.8808717,25.7285959 C86.8808717,20.3541781 91.2995157,15.9517295 96.6937046,15.9517295 L133.190557,15.9517295 C138.584746,15.9517295 143.00339,20.3541781 143.00339,25.7285959 L143.00339,116.121729 C143.00339,121.553322 138.584746,125.898596 133.190557,125.898596 Z M96.6937046,18.0671918 C92.4472155,18.0671918 89.0041162,21.4976712 89.0041162,25.7285959 L89.0041162,116.121729 C89.0041162,120.352654 92.4472155,123.783134 96.6937046,123.783134 L133.190557,123.783134 C137.437046,123.783134 140.880145,120.352654 140.880145,116.121729 L140.880145,25.7285959 C140.880145,21.4976712 137.437046,18.0671918 133.190557,18.0671918 L96.6937046,18.0671918 Z" id="Shape" fill="#4A555F"></path>
                    <path d="M133.190557,122.410942 L96.6937046,122.410942 C93.1932203,122.410942 90.3813559,119.609384 90.3813559,116.121729 L90.3813559,25.7285959 C90.3813559,22.2409418 93.1932203,19.4393836 96.6937046,19.4393836 L133.190557,19.4393836 C136.691041,19.4393836 139.502906,22.2409418 139.502906,25.7285959 L139.502906,116.121729 C139.502906,119.609384 136.691041,122.410942 133.190557,122.410942 Z M96.6937046,21.5548459 C94.3983051,21.5548459 92.5046005,23.4416096 92.5046005,25.7285959 L92.5046005,116.121729 C92.5046005,118.408716 94.3983051,120.295479 96.6937046,120.295479 L133.190557,120.295479 C135.485956,120.295479 137.379661,118.408716 137.379661,116.121729 L137.379661,25.7285959 C137.379661,23.4416096 135.485956,21.5548459 133.190557,21.5548459 L96.6937046,21.5548459 Z" id="Shape" fill="#00F1B7"></path>
                    <path d="M131.641162,55.9168151 L98.1857143,55.9168151 L98.1857143,47.2834418 L131.641162,47.2834418 L131.641162,55.9168151 Z M100.308959,53.8013527 L129.575303,53.8013527 L129.575303,49.3989041 L100.308959,49.3989041 L100.308959,53.8013527 Z" id="Shape" fill="#4A555F"></path>
                    <path d="M131.641162,67.6947945 L98.1857143,67.6947945 L98.1857143,59.0614212 L131.641162,59.0614212 L131.641162,67.6947945 Z M100.308959,65.5793322 L129.575303,65.5793322 L129.575303,61.1768836 L100.308959,61.1768836 L100.308959,65.5793322 Z" id="Shape" fill="#4A555F"></path>
                    <path d="M131.641162,79.2440753 L98.1857143,79.2440753 L98.1857143,70.6107021 L131.641162,70.6107021 L131.641162,79.2440753 Z M100.308959,77.1857877 L129.575303,77.1857877 L129.575303,72.783339 L100.308959,72.783339 L100.308959,77.1857877 Z" id="Shape" fill="#4A555F"></path>
                    <path d="M131.641162,91.0220548 L98.1857143,91.0220548 L98.1857143,82.3886815 L131.641162,82.3886815 L131.641162,91.0220548 Z M100.308959,88.9637671 L129.575303,88.9637671 L129.575303,84.5613185 L100.308959,84.5613185 L100.308959,88.9637671 Z" id="Shape" fill="#4A555F"></path>
                    <path d="M114.999516,35.4482877 C112.187651,35.4482877 109.892252,33.1613014 109.892252,30.3597432 C109.892252,27.5581849 112.187651,25.2711986 114.999516,25.2711986 C117.81138,25.2711986 120.10678,27.5581849 120.10678,30.3597432 C120.10678,33.1613014 117.81138,35.4482877 114.999516,35.4482877 Z M114.999516,27.3294863 C113.335351,27.3294863 111.958111,28.7016781 111.958111,30.3597432 C111.958111,32.0178082 113.335351,33.39 114.999516,33.39 C116.66368,33.39 118.04092,32.0178082 118.04092,30.3597432 C117.983535,28.6445034 116.66368,27.3294863 114.999516,27.3294863 Z" id="Shape" fill="#4A555F"></path>
                    <path d="M115.286441,119.380685 C112.474576,119.380685 110.121792,117.093699 110.121792,114.234966 C110.121792,111.376233 112.417191,109.089247 115.286441,109.089247 C118.15569,109.089247 120.45109,111.376233 120.45109,114.234966 C120.393705,117.093699 118.098305,119.380685 115.286441,119.380685 Z M115.286441,111.261884 C113.622276,111.261884 112.245036,112.634075 112.245036,114.29214 C112.245036,115.950205 113.622276,117.322397 115.286441,117.322397 C116.950605,117.322397 118.327845,115.950205 118.327845,114.29214 C118.327845,112.634075 116.950605,111.261884 115.286441,111.261884 Z" id="Shape" fill="#4A555F"></path>
                    <ellipse id="Oval" fill="#FFFFFF" cx="219.784504" cy="18.1815411" rx="16.8711864" ry="16.8093493"></ellipse>
                    <ellipse id="Oval" fill="#FFFFFF" cx="141.913075" cy="18.1815411" rx="16.8711864" ry="16.8093493"></ellipse>
                    <ellipse id="Oval" fill="#E0E0E0" cx="141.62615" cy="18.1815411" rx="9.98498789" ry="9.94839041"></ellipse>
                    <path d="M141.913075,36.0200342 C132.042857,36.0200342 124.008959,28.0155822 124.008959,18.1815411 C124.008959,8.3475 132.042857,0.343047945 141.913075,0.343047945 C151.783293,0.343047945 159.817191,8.3475 159.817191,18.1815411 C159.874576,28.0155822 151.840678,36.0200342 141.913075,36.0200342 Z M141.913075,2.40133562 C133.190557,2.40133562 126.074818,9.49099315 126.074818,18.1243664 C126.074818,26.7577397 133.190557,33.9045719 141.913075,33.9045719 C150.635593,33.9045719 157.693947,26.8149144 157.693947,18.1243664 C157.751332,9.49099315 150.635593,2.40133562 141.913075,2.40133562 Z" id="Shape" fill="#4A555F"></path>
                    <path d="M141.28184,32.1321575 C140.535835,32.0749829 139.789831,32.0178082 139.043826,31.8462842 L139.502906,29.7879966 C140.13414,29.9023459 140.765375,30.0166952 141.39661,30.0166952 L141.28184,32.1321575 Z M143.519855,32.0178082 L143.290315,29.9595205 C143.92155,29.9023459 144.552785,29.7879966 145.184019,29.6164726 L145.757869,31.6175856 C145.011864,31.7891096 144.26586,31.9606336 143.519855,32.0178082 Z M136.863196,31.1601884 C136.174576,30.8743151 135.485956,30.5312671 134.797337,30.1882192 L135.887651,28.4158048 C136.461501,28.7588527 137.035351,29.044726 137.609201,29.2734247 L136.863196,31.1601884 Z M147.881114,30.8171404 L146.962954,28.9303767 C147.536804,28.6445034 148.110654,28.3586301 148.627119,27.9584075 L149.832203,29.6736473 C149.200969,30.1310445 148.569734,30.4740925 147.881114,30.8171404 Z M132.961017,28.8732021 C132.387167,28.4158048 131.813317,27.8440582 131.354237,27.2723116 L132.961017,25.9001199 C133.362712,26.3575171 133.821792,26.8149144 134.338257,27.2723116 L132.961017,28.8732021 Z M151.611138,28.3014555 L150.176513,26.8149144 C150.635593,26.3575171 151.094673,25.9001199 151.438983,25.3855479 L153.103148,26.6433904 C152.644068,27.215137 152.184988,27.7297089 151.611138,28.3014555 Z M129.976998,25.4998973 C129.575303,24.870976 129.230993,24.1848801 128.944068,23.4987842 L130.895157,22.698339 C131.124697,23.2700856 131.411622,23.8418322 131.755932,24.4135788 L129.976998,25.4998973 Z M154.365617,24.6994521 L152.529298,23.7274829 C152.816223,23.1557363 153.103148,22.5839897 153.275303,21.9550685 L155.283777,22.6411644 C154.996852,23.3272603 154.709927,24.0133562 154.365617,24.6994521 Z M128.255448,21.3261473 C128.083293,20.5828767 127.968523,19.8396062 127.911138,19.0963356 L130.034383,18.9819863 C130.091768,19.6109075 130.149153,20.2398288 130.321308,20.86875 L128.255448,21.3261473 Z M155.800242,20.4113527 L153.734383,20.0683048 C153.849153,19.4393836 153.906538,18.8104623 153.906538,18.1243664 C153.906538,17.6097945 153.849153,17.0952226 153.791768,16.5806507 L155.857627,16.2947774 C155.915012,16.866524 155.972397,17.4954452 155.972397,18.1243664 C155.972397,18.9248116 155.915012,19.6680822 155.800242,20.4113527 Z M130.091768,17.0380479 L128.025908,16.8093493 C128.083293,16.0660788 128.255448,15.3228082 128.427603,14.5795377 L130.436077,15.0941096 C130.263923,15.7230308 130.149153,16.3519521 130.091768,17.0380479 Z M153.332688,14.7510616 C153.160533,14.1221404 152.930993,13.5503938 152.644068,12.9786473 L154.537772,12.0638527 C154.882082,12.7499486 155.169007,13.4360445 155.341162,14.1793151 L153.332688,14.7510616 Z M131.067312,13.3216952 L129.173608,12.4640753 C129.460533,11.7779795 129.862228,11.0918836 130.263923,10.4629623 L132.042857,11.6064555 C131.641162,12.1782021 131.296852,12.7499486 131.067312,13.3216952 Z M151.668523,11.3205822 C151.324213,10.8060103 150.865133,10.2914384 150.406053,9.8340411 L151.898063,8.3475 C152.414528,8.86207192 152.930993,9.49099315 153.332688,10.0627397 L151.668523,11.3205822 Z M133.190557,10.1199144 L131.641162,8.69054795 C132.157627,8.11880137 132.731477,7.60422945 133.305327,7.14683219 L134.625182,8.80489726 C134.108717,9.20511986 133.592252,9.66251712 133.190557,10.1199144 Z M148.971429,8.57619863 C148.454964,8.17597603 147.881114,7.83292808 147.307264,7.54705479 L148.282809,5.6602911 C148.971429,6.00333904 149.602663,6.40356164 150.233898,6.8609589 L148.971429,8.57619863 Z M136.174576,7.71857877 L135.141646,5.88898973 C135.830266,5.54594178 136.518886,5.20289384 137.207506,4.97419521 L137.896126,6.97530822 C137.379661,7.14683219 136.748426,7.43270548 136.174576,7.71857877 Z M145.528329,6.80378425 C144.897094,6.63226027 144.26586,6.4607363 143.634625,6.40356164 L143.92155,4.34527397 C144.667554,4.45962329 145.413559,4.63114726 146.159564,4.85984589 L145.528329,6.80378425 Z M139.789831,6.4607363 L139.445521,4.40244863 C140.191525,4.28809932 140.93753,4.17375 141.683535,4.17375 L141.74092,6.28921233 C141.109685,6.28921233 140.421065,6.34638699 139.789831,6.4607363 Z" id="Shape" fill="#4A555F"></path>
                    <path d="M141.28184,32.1321575 C140.535835,32.0749829 139.789831,32.0178082 139.043826,31.8462842 L139.502906,29.7879966 C140.13414,29.9023459 140.765375,30.0166952 141.39661,30.0166952 L141.28184,32.1321575 Z M143.519855,32.0178082 L143.290315,29.9595205 C143.92155,29.9023459 144.552785,29.7879966 145.184019,29.6164726 L145.757869,31.6175856 C145.011864,31.7891096 144.26586,31.9606336 143.519855,32.0178082 Z M136.863196,31.1601884 C136.174576,30.8743151 135.485956,30.5312671 134.797337,30.1882192 L135.887651,28.4158048 C136.461501,28.7588527 137.035351,29.044726 137.609201,29.2734247 L136.863196,31.1601884 Z M147.881114,30.8171404 L146.962954,28.9303767 C147.536804,28.6445034 148.110654,28.3586301 148.627119,27.9584075 L149.832203,29.6736473 C149.200969,30.1310445 148.569734,30.4740925 147.881114,30.8171404 Z M132.961017,28.8732021 C132.387167,28.4158048 131.813317,27.8440582 131.354237,27.2723116 L132.961017,25.9001199 C133.362712,26.3575171 133.821792,26.8149144 134.338257,27.2723116 L132.961017,28.8732021 Z M151.611138,28.3014555 L150.176513,26.8149144 C150.635593,26.3575171 151.094673,25.9001199 151.438983,25.3855479 L153.103148,26.6433904 C152.644068,27.215137 152.184988,27.7297089 151.611138,28.3014555 Z M129.976998,25.4998973 C129.575303,24.870976 129.230993,24.1848801 128.944068,23.4987842 L130.895157,22.698339 C131.124697,23.2700856 131.411622,23.8418322 131.755932,24.4135788 L129.976998,25.4998973 Z M154.365617,24.6994521 L152.529298,23.7274829 C152.816223,23.1557363 153.103148,22.5839897 153.275303,21.9550685 L155.283777,22.6411644 C154.996852,23.3272603 154.709927,24.0133562 154.365617,24.6994521 Z M128.255448,21.3261473 C128.083293,20.5828767 127.968523,19.8396062 127.911138,19.0963356 L130.034383,18.9819863 C130.091768,19.6109075 130.149153,20.2398288 130.321308,20.86875 L128.255448,21.3261473 Z M155.800242,20.4113527 L153.734383,20.0683048 C153.849153,19.4393836 153.906538,18.8104623 153.906538,18.1243664 C153.906538,17.6097945 153.849153,17.0952226 153.791768,16.5806507 L155.857627,16.2947774 C155.915012,16.866524 155.972397,17.4954452 155.972397,18.1243664 C155.972397,18.9248116 155.915012,19.6680822 155.800242,20.4113527 Z M130.091768,17.0380479 L128.025908,16.8093493 C128.083293,16.0660788 128.255448,15.3228082 128.427603,14.5795377 L130.436077,15.0941096 C130.263923,15.7230308 130.149153,16.3519521 130.091768,17.0380479 Z M153.332688,14.7510616 C153.160533,14.1221404 152.930993,13.5503938 152.644068,12.9786473 L154.537772,12.0638527 C154.882082,12.7499486 155.169007,13.4360445 155.341162,14.1793151 L153.332688,14.7510616 Z M131.067312,13.3216952 L129.173608,12.4640753 C129.460533,11.7779795 129.862228,11.0918836 130.263923,10.4629623 L132.042857,11.6064555 C131.641162,12.1782021 131.296852,12.7499486 131.067312,13.3216952 Z M151.668523,11.3205822 C151.324213,10.8060103 150.865133,10.2914384 150.406053,9.8340411 L151.898063,8.3475 C152.414528,8.86207192 152.930993,9.49099315 153.332688,10.0627397 L151.668523,11.3205822 Z M133.190557,10.1199144 L131.641162,8.69054795 C132.157627,8.11880137 132.731477,7.60422945 133.305327,7.14683219 L134.625182,8.80489726 C134.108717,9.20511986 133.592252,9.66251712 133.190557,10.1199144 Z M148.971429,8.57619863 C148.454964,8.17597603 147.881114,7.83292808 147.307264,7.54705479 L148.282809,5.6602911 C148.971429,6.00333904 149.602663,6.40356164 150.233898,6.8609589 L148.971429,8.57619863 Z M136.174576,7.71857877 L135.141646,5.88898973 C135.830266,5.54594178 136.518886,5.20289384 137.207506,4.97419521 L137.896126,6.97530822 C137.379661,7.14683219 136.748426,7.43270548 136.174576,7.71857877 Z M145.528329,6.80378425 C144.897094,6.63226027 144.26586,6.4607363 143.634625,6.40356164 L143.92155,4.34527397 C144.667554,4.45962329 145.413559,4.63114726 146.159564,4.85984589 L145.528329,6.80378425 Z M139.789831,6.4607363 L139.445521,4.40244863 C140.191525,4.28809932 140.93753,4.17375 141.683535,4.17375 L141.74092,6.28921233 C141.109685,6.28921233 140.421065,6.34638699 139.789831,6.4607363 Z" id="Shape" fill="#4A555F"></path>
                    <polygon id="Shape" fill="#4A555F" points="140.70799 23.4416096 136.518886 18.867637 138.068281 17.4382705 140.70799 20.3541781 147.479419 13.2073459 148.971429 14.693887"></polygon>
                    <ellipse id="Oval" fill="#FFFFFF" cx="17.2154964" cy="120.123955" rx="16.8711864" ry="16.8093493"></ellipse>
                </g>
                <g id="Group" transform="translate(156.179724, 111.150685)" fill="#4A555F">
                    <rect id="Rectangle-path" x="6.07681106" y="0" width="2.10132719" height="3.43047945"></rect>
                    <rect id="Rectangle-path" x="6.07681106" y="9.42020548" width="2.10132719" height="3.43047945"></rect>
                    <rect id="Rectangle-path" x="10.2226728" y="5.44520548" width="3.57793548" height="2.01472603"></rect>
                    <rect id="Rectangle-path" x="0.454341014" y="5.44520548" width="3.57793548" height="2.01472603"></rect>
                </g>
                <g id="Group" transform="translate(61.161290, 8.780822)" fill="#4A555F">
                    <rect id="Rectangle-path" x="6.07681106" y="0.163356164" width="2.10132719" height="3.43047945"></rect>
                    <rect id="Rectangle-path" x="6.07681106" y="9.58356164" width="2.10132719" height="3.43047945"></rect>
                    <rect id="Rectangle-path" x="10.2226728" y="5.55410959" width="3.57793548" height="2.01472603"></rect>
                    <rect id="Rectangle-path" x="0.397548387" y="5.55410959" width="3.57793548" height="2.01472603"></rect>
                </g>
            </g>
        </g>
    </g>
</svg>