<?xml version="1.0" encoding="UTF-8"?>
<svg width="141px" height="132px" viewBox="0 0 141 132" version="1.1" xmlns="http://www.w3.org/2000/svg" xmlns:xlink="http://www.w3.org/1999/xlink">
    <!-- Generator: Sketch 49.1 (51147) - http://www.bohemiancoding.com/sketch -->
    <title>no-fees-icn</title>
    <desc>Created with Sketch.</desc>
    <defs></defs>
    <g id="Website-V1" stroke="none" stroke-width="1" fill="none" fill-rule="evenodd">
        <g transform="translate(-1121.000000, -590.000000)" id="no-fees-icn">
            <g transform="translate(1121.000000, 590.000000)">
                <g id="BITCOIN-CALCULATOR" fill-rule="nonzero">
                    <path d="M115.067219,58.4351594 C118.681178,58.4351594 121.6125,55.4925658 121.6125,51.8647106 L121.6125,28.7270566 C121.6125,25.0992015 118.681178,22.1566079 115.067219,22.1566079 L50.8190589,22.1566079 C50.0159569,10.7490189 40.5393533,1.76 28.9746845,1.76 C16.8879995,1.76 7.05,11.5955184 7.05,23.7689879 C7.05,35.1362674 15.6431914,44.5283813 26.6858438,45.6570474 L26.6858438,51.8647106 C26.6858438,55.4925658 29.6171661,58.4351594 33.2311251,58.4351594 C29.6171661,58.4351594 26.6858438,61.377753 26.6858438,65.0056082 L26.6858438,125.429551 C26.6858438,129.057406 29.6171661,132 33.2311251,132 L115.027064,132 C118.641023,132 121.572345,129.057406 121.572345,125.429551 L121.572345,65.0056082 C121.572345,61.377753 118.681178,58.4351594 115.067219,58.4351594 Z" id="Shape" fill="#FFFFFF"></path>
                    <ellipse id="Oval" fill="#FFD552" cx="129.54375" cy="60.72" rx="1" ry="1"></ellipse>
                    <ellipse id="Oval" fill="#FFD552" cx="15.8625" cy="93.28" rx="1.7625" ry="1.76"></ellipse>
                    <g id="Group" transform="translate(0.000000, 56.320000)" fill="#4A555F">
                        <rect id="Rectangle-path" x="4.4415" y="0.11" width="1.5651" height="2.31"></rect>
                        <rect id="Rectangle-path" x="4.4415" y="6.41666667" width="1.5651" height="2.31"></rect>
                        <rect id="Rectangle-path" x="7.5717" y="3.74" width="2.6649" height="1.35666667"></rect>
                        <rect id="Rectangle-path" x="0.2538" y="3.74" width="2.6649" height="1.35666667"></rect>
                    </g>
                    <g id="Group" transform="translate(130.425000, 21.120000)" fill="#4A555F">
                        <rect id="Rectangle-path" x="3.78203125" y="0.146666667" width="1.35859375" height="2.31"></rect>
                        <rect id="Rectangle-path" x="3.78203125" y="6.45333333" width="1.35859375" height="2.31"></rect>
                        <rect id="Rectangle-path" x="6.4625" y="3.77666667" width="2.31328125" height="1.35666667"></rect>
                        <rect id="Rectangle-path" x="0.146875" y="3.77666667" width="2.31328125" height="1.35666667"></rect>
                    </g>
                    <ellipse id="Oval" fill="#E0E0E0" cx="136.59375" cy="111.76" rx="4.40625" ry="4.4"></ellipse>
                    <g id="Group" transform="translate(5.287500, 0.000000)">
                        <path d="M50.6615431,22.9792683 C50.6615431,38.4731707 38.1465776,51.0292683 22.703431,51.0292683 C21.9413017,51.0292683 21.1791724,50.9890244 20.4571552,50.9487805 L20.4571552,27.9695122 C20.4571552,24.347561 23.3853362,21.4097561 26.9954224,21.4097561 L50.621431,21.4097561 C50.6615431,21.8926829 50.6615431,22.4158537 50.6615431,22.9792683 Z" id="Shape" fill="#71CDE1"></path>
                        <path d="M50.6615431,22.9792683 C50.6615431,38.4731707 38.1465776,51.0292683 22.703431,51.0292683 C21.9413017,51.0292683 21.1791724,50.9890244 20.4571552,50.9487805 L20.4571552,44.8317073 C21.1791724,44.9121951 21.9413017,44.952439 22.703431,44.952439 C34.7771638,44.952439 44.6046207,35.1329268 44.6046207,22.9792683 C44.6046207,22.4560976 44.6046207,21.8926829 44.5645086,21.3695122 L50.621431,21.3695122 C50.6615431,21.8926829 50.6615431,22.4158537 50.6615431,22.9792683 Z" id="Shape" fill="#0BD4FF"></path>
                        <g transform="translate(28.479569, 28.573171)">
                            <path d="M78.2586466,0.362195122 L21.540181,0.362195122 C19.3340172,10.5841463 11.5923879,18.7134146 1.64459483,21.45 L78.2586466,21.45 L78.2586466,0.362195122 Z" id="Shape" fill="#E0E0E0"></path>
                            <path d="M78.2586466,0.362195122 L21.540181,0.362195122 C19.3340172,10.5841463 11.5923879,18.7134146 1.64459483,21.45 L78.2586466,21.45 L78.2586466,0.362195122 Z" id="Shape" fill="#E0E0E0"></path>
                            <rect id="Rectangle-path" fill="#0BD4FF" x="2.04571552" y="2.33414634" width="74.2474397" height="17.1439024"></rect>
                            <path d="M21.540181,0.362195122 L0.0802241379,0.362195122 L0.0802241379,21.45 L1.64459483,21.45 C11.5923879,18.6731707 19.3340172,10.5439024 21.540181,0.362195122 Z" id="Shape" fill="#F68F6F"></path>
                            <path d="M21.540181,0.362195122 L0.0802241379,0.362195122 L0.0802241379,21.45 L1.64459483,21.45 C11.5923879,18.6731707 19.3340172,10.5439024 21.540181,0.362195122 Z" id="Shape" fill="#00F1B7"></path>
                        </g>
                        <path d="M108.703707,58.3134146 L26.9954224,58.3134146 C22.9842155,58.3134146 19.7351379,55.0536585 19.7351379,51.0292683 L19.7351379,27.9292683 C19.7351379,23.904878 22.9842155,20.645122 26.9954224,20.645122 L108.703707,20.645122 C112.714914,20.645122 115.963991,23.904878 115.963991,27.9292683 L115.963991,51.0292683 C115.963991,55.0134146 112.714914,58.3134146 108.703707,58.3134146 Z M26.9553103,22.0939024 C23.7463448,22.0939024 21.1390603,24.7097561 21.1390603,27.9292683 L21.1390603,51.0292683 C21.1390603,54.2487805 23.7463448,56.8646341 26.9553103,56.8646341 L108.663595,56.8646341 C111.87256,56.8646341 114.479845,54.2487805 114.479845,51.0292683 L114.479845,27.9292683 C114.479845,24.7097561 111.87256,22.0939024 108.663595,22.0939024 L26.9553103,22.0939024 Z" id="Shape" fill="#4A555F"></path>
                        <path d="M112.755026,27.9292683 L112.755026,51.0292683 C112.755026,53.2829268 110.909871,55.1341463 108.663595,55.1341463 L26.9553103,55.1341463 C25.2706034,55.1341463 23.826569,54.1280488 23.2248879,52.6792683 L108.663595,52.6792683 C109.54606,52.6792683 110.30819,51.954878 110.30819,51.0292683 L110.30819,24.1865854 C111.752224,24.7902439 112.755026,26.2390244 112.755026,27.9292683 Z" id="Shape" fill="#E0E0E0"></path>
                        <path d="M108.703707,131.718293 L26.9954224,131.718293 C22.9842155,131.718293 19.7351379,128.458537 19.7351379,124.434146 L19.7351379,64.1085366 C19.7351379,60.0841463 22.9842155,56.8243902 26.9954224,56.8243902 L108.703707,56.8243902 C112.714914,56.8243902 115.963991,60.0841463 115.963991,64.1085366 L115.963991,124.434146 C115.963991,128.458537 112.714914,131.718293 108.703707,131.718293 Z M26.9553103,58.3134146 C23.7463448,58.3134146 21.1390603,60.9292683 21.1390603,64.1487805 L21.1390603,124.47439 C21.1390603,127.693902 23.7463448,130.309756 26.9553103,130.309756 L108.663595,130.309756 C111.87256,130.309756 114.479845,127.693902 114.479845,124.47439 L114.479845,64.1487805 C114.479845,60.9292683 111.87256,58.3134146 108.663595,58.3134146 L26.9553103,58.3134146 Z" id="Shape" fill="#4A555F"></path>
                        <path d="M112.755026,64.1085366 L112.755026,124.434146 C112.755026,126.687805 110.909871,128.539024 108.663595,128.539024 L26.9553103,128.539024 C25.2706034,128.539024 23.826569,127.532927 23.2248879,126.084146 L108.663595,126.084146 C109.586172,126.084146 110.30819,125.359756 110.30819,124.434146 L110.30819,60.3658537 C111.752224,61.0097561 112.755026,62.4585366 112.755026,64.1085366 Z" id="Shape" fill="#E0E0E0"></path>
                        <ellipse id="Oval" fill="#FFFFFF" cx="22.703431" cy="22.9792683" rx="21.9011897" ry="21.9731707"></ellipse>
                        <path d="M22.703431,45.6768293 C10.2285776,45.6768293 0.0802241379,35.495122 0.0802241379,22.9792683 C0.0802241379,10.4634146 10.2285776,0.281707317 22.703431,0.281707317 C35.1782845,0.281707317 45.3266379,10.4634146 45.3266379,22.9792683 C45.3266379,35.495122 35.1782845,45.6768293 22.703431,45.6768293 Z M22.703431,1.7304878 C11.030819,1.7304878 1.56437069,11.2682927 1.56437069,22.9390244 C1.56437069,34.65 11.070931,44.147561 22.703431,44.147561 C34.3760431,44.147561 43.8424914,34.6097561 43.8424914,22.9390244 C43.8424914,11.2682927 34.3760431,1.7304878 22.703431,1.7304878 Z" id="Shape" fill="#4A555F"></path>
                        <path d="M22.7435431,41.5719512 L22.7435431,40.0829268 C23.2248879,40.0829268 23.6661207,40.0426829 24.1474655,40.002439 L24.2678017,41.4512195 C23.7864569,41.5317073 23.265,41.5719512 22.7435431,41.5719512 Z M21.2192845,41.4914634 C20.6978276,41.4512195 20.2164828,41.3707317 19.6950259,41.2902439 L19.9356983,39.8414634 C20.376931,39.9219512 20.8582759,39.9621951 21.3396207,40.002439 L21.2192845,41.4914634 Z M25.7920603,41.2902439 L25.5513879,39.8414634 C25.9926207,39.7609756 26.4739655,39.6804878 26.9151983,39.5597561 L27.2762069,40.9682927 C26.7948621,41.0890244 26.3135172,41.2097561 25.7920603,41.2902439 Z M18.2108793,41.0085366 C17.7295345,40.8878049 17.2080776,40.7268293 16.7267328,40.5658537 L17.2080776,39.1573171 C17.6493103,39.3182927 18.0905431,39.4390244 18.5718879,39.5597561 L18.2108793,41.0085366 Z M28.7603534,40.5256098 L28.2790086,39.1170732 C28.7202414,38.9560976 29.1614741,38.795122 29.6027069,38.5939024 L30.2043879,39.9219512 C29.7230431,40.1634146 29.2416983,40.3646341 28.7603534,40.5256098 Z M15.3228103,40.0426829 C14.8414655,39.8414634 14.4002328,39.6 13.959,39.3585366 L14.6409052,38.0707317 C15.0420259,38.3121951 15.4832586,38.5134146 15.9244914,38.6743902 L15.3228103,40.0426829 Z M31.5681983,39.2780488 L30.846181,37.9902439 C31.2473017,37.7487805 31.6484224,37.5073171 32.0495431,37.2658537 L32.8517845,38.5134146 C32.4506638,38.795122 32.009431,39.0365854 31.5681983,39.2780488 Z M12.6353017,38.5939024 C12.194069,38.3121951 11.7929483,38.0304878 11.3918276,37.7085366 L12.2742931,36.5414634 C12.6353017,36.8231707 13.0364224,37.104878 13.4375431,37.3463415 L12.6353017,38.5939024 Z M34.0952586,37.6280488 L33.172681,36.4609756 C33.5336897,36.1792683 33.8946983,35.8573171 34.2557069,35.5353659 L35.2585086,36.6219512 C34.8975,36.9841463 34.4963793,37.3060976 34.0952586,37.6280488 Z M10.2285776,36.702439 C9.86756897,36.3402439 9.50656034,35.9780488 9.14555172,35.6158537 L10.2285776,34.6097561 C10.5494741,34.9719512 10.8703707,35.2939024 11.2313793,35.6158537 L10.2285776,36.702439 Z M36.3415345,35.5353659 L35.2585086,34.5292683 C35.5794052,34.1670732 35.9003017,33.804878 36.1810862,33.4426829 L37.3443362,34.3280488 C37.0234397,34.7707317 36.7025431,35.1731707 36.3415345,35.5353659 Z M8.14275,34.4487805 C7.82185345,34.0463415 7.54106897,33.6439024 7.26028448,33.2012195 L8.50375862,32.3963415 C8.74443103,32.7987805 9.02521552,33.1609756 9.34611207,33.5231707 L8.14275,34.4487805 Z M38.2268017,33.1207317 L36.9833276,32.3158537 C37.224,31.9134146 37.4646724,31.5109756 37.7053448,31.1085366 L38.988931,31.7926829 C38.7883707,32.2353659 38.5075862,32.6780488 38.2268017,33.1207317 Z M6.4580431,31.9134146 C6.21737069,31.4707317 5.97669828,30.9878049 5.77613793,30.545122 L7.09983621,29.9414634 C7.30039655,30.3841463 7.5009569,30.7865854 7.74162931,31.1890244 L6.4580431,31.9134146 Z M39.6708362,30.4243902 L38.3070259,29.8207317 C38.5075862,29.3780488 38.6680345,28.9353659 38.8284828,28.4926829 L40.2324052,28.9756098 C40.0719569,29.4585366 39.8713966,29.9414634 39.6708362,30.4243902 Z M5.21456897,29.0963415 C5.05412069,28.6134146 4.89367241,28.1304878 4.77333621,27.647561 L6.17725862,27.2853659 C6.29759483,27.7280488 6.41793103,28.2109756 6.57837931,28.6536585 L5.21456897,29.0963415 Z M40.6736379,27.5268293 L39.2697155,27.1646341 C39.3900517,26.7219512 39.4702759,26.2390244 39.5505,25.7963415 L40.9945345,26.0378049 C40.9143103,26.5207317 40.7939741,27.0439024 40.6736379,27.5268293 Z M4.45243966,26.1585366 C4.37221552,25.6756098 4.29199138,25.152439 4.25187931,24.6292683 L5.69591379,24.5085366 C5.73602586,24.9914634 5.81625,25.4341463 5.89647414,25.9170732 L4.45243966,26.1585366 Z M41.1549828,24.5085366 L39.7109483,24.3878049 C39.7510603,23.904878 39.7510603,23.4621951 39.7510603,22.9792683 L39.7510603,22.7378049 L41.2352069,22.7378049 L41.2352069,22.9792683 C41.2352069,23.4621951 41.1950948,23.9853659 41.1549828,24.5085366 Z M4.17165517,23.1 L4.17165517,22.9390244 C4.17165517,22.4963415 4.17165517,22.0134146 4.21176724,21.5304878 L5.69591379,21.6512195 C5.65580172,22.0939024 5.65580172,22.4963415 5.65580172,22.9390244 L5.65580172,23.0597561 L4.17165517,23.1 Z M39.6708362,21.3292683 C39.6307241,20.8463415 39.5505,20.4036585 39.4702759,19.9207317 L40.9143103,19.6792683 C40.9945345,20.1621951 41.0747586,20.6853659 41.1148707,21.2085366 L39.6708362,21.3292683 Z M5.85636207,20.2829268 L4.41232759,20.0414634 C4.49255172,19.5182927 4.61288793,19.0353659 4.73322414,18.552439 L6.17725862,18.9146341 C6.01681034,19.3170732 5.93658621,19.8 5.85636207,20.2829268 Z M39.1894914,18.552439 C39.0691552,18.1097561 38.948819,17.6670732 38.7883707,17.2243902 L40.152181,16.7414634 C40.3126293,17.2243902 40.4730776,17.7073171 40.5934138,18.1902439 L39.1894914,18.552439 Z M6.49815517,17.5060976 L5.09423276,17.0231707 C5.25468103,16.5402439 5.45524138,16.0573171 5.65580172,15.5743902 L7.01961207,16.1378049 C6.81905172,16.6207317 6.65860345,17.0634146 6.49815517,17.5060976 Z M38.2268017,15.8963415 C38.0262414,15.4536585 37.825681,15.0512195 37.5850086,14.6487805 L38.8685948,13.9243902 C39.1092672,14.3670732 39.3499397,14.85 39.5505,15.2926829 L38.2268017,15.8963415 Z M7.6212931,14.9304878 L6.3377069,14.2463415 C6.57837931,13.8036585 6.81905172,13.3609756 7.09983621,12.9182927 L8.34331034,13.7231707 C8.10263793,14.1256098 7.86196552,14.5280488 7.6212931,14.9304878 Z M36.8629914,13.4414634 C36.622319,13.0390244 36.3415345,12.6768293 36.0206379,12.3146341 L37.1838879,11.3890244 C37.5047845,11.7914634 37.785569,12.1939024 38.1064655,12.6365854 L36.8629914,13.4414634 Z M9.14555172,12.5560976 L7.98230172,11.6707317 C8.30319828,11.2682927 8.62409483,10.8658537 8.94499138,10.5036585 L10.0280172,11.5097561 C9.74723276,11.8317073 9.42633621,12.1939024 9.14555172,12.5560976 Z M35.1381724,11.2280488 C34.8172759,10.9060976 34.4963793,10.5439024 34.1353707,10.2219512 L35.1381724,9.13536585 C35.499181,9.45731707 35.9003017,9.8195122 36.2211983,10.2219512 L35.1381724,11.2280488 Z M11.030819,10.4634146 L10.0280172,9.37682927 C10.3890259,9.01463415 10.7901466,8.69268293 11.1912672,8.37073171 L12.1138448,9.53780488 C11.7528362,9.8195122 11.3918276,10.1414634 11.030819,10.4634146 Z M33.0122328,9.33658537 C32.6512241,9.05487805 32.2501034,8.77317073 31.8489828,8.53170732 L32.6512241,7.28414634 C33.0924569,7.56585366 33.4935776,7.84756098 33.8946983,8.1695122 L33.0122328,9.33658537 Z M13.2369828,8.69268293 L12.4347414,7.48536585 C12.8759741,7.20365854 13.3172069,6.92195122 13.7584397,6.6804878 L14.4804569,7.96829268 C14.0392241,8.2097561 13.6381034,8.45121951 13.2369828,8.69268293 Z M30.6456207,7.80731707 C30.2445,7.60609756 29.8032672,7.36463415 29.3620345,7.20365854 L29.9236034,5.83536585 C30.4049483,6.03658537 30.846181,6.23780488 31.2874138,6.47926829 L30.6456207,7.80731707 Z M15.683819,7.36463415 L15.0821379,6.03658537 C15.5634828,5.83536585 16.0047155,5.63414634 16.4860603,5.47317073 L16.9674052,6.88170732 C16.5662845,6.96219512 16.1250517,7.16341463 15.683819,7.36463415 Z M28.0784483,6.72073171 C27.6372155,6.5597561 27.1959828,6.43902439 26.7146379,6.31829268 L27.0756466,4.8695122 C27.5569914,4.9902439 28.0784483,5.11097561 28.5597931,5.27195122 L28.0784483,6.72073171 Z M18.3713276,6.39878049 L18.010319,4.9902439 C18.4916638,4.8695122 19.0131207,4.74878049 19.4944655,4.66829268 L19.7351379,6.11707317 C19.2537931,6.19756098 18.8125603,6.27804878 18.3713276,6.39878049 Z M25.3508276,6.03658537 C24.9095948,5.95609756 24.42825,5.91585366 23.9469052,5.87560976 L24.0672414,4.38658537 C24.5886983,4.42682927 25.0700431,4.46707317 25.5915,4.54756098 L25.3508276,6.03658537 Z M21.1390603,5.91585366 L21.0187241,4.46707317 C21.540181,4.42682927 22.0215259,4.38658537 22.5429828,4.38658537 L22.5429828,5.87560976 C22.0616379,5.83536585 21.5802931,5.87560976 21.1390603,5.91585366 Z" id="Shape" fill="#4A555F"></path>
                        <ellipse id="Oval" fill="#1559FF" cx="22.703431" cy="22.9792683" rx="14.4002328" ry="14.447561"></ellipse>
                        <path d="M43.2809224,86.3634146 L31.6083103,86.3634146 C29.7230431,86.3634146 28.1586724,84.8341463 28.1586724,82.902439 L28.1586724,71.1914634 C28.1586724,69.3 29.682931,67.7304878 31.6083103,67.7304878 L43.2809224,67.7304878 C45.1661897,67.7304878 46.7305603,69.2597561 46.7305603,71.1914634 L46.7305603,82.902439 C46.6904483,84.8341463 45.1661897,86.3634146 43.2809224,86.3634146 Z M31.5681983,69.2195122 C30.4851724,69.2195122 29.6027069,70.104878 29.6027069,71.1914634 L29.6027069,82.902439 C29.6027069,83.9890244 30.4851724,84.8743902 31.5681983,84.8743902 L43.2408103,84.8743902 C44.3238362,84.8743902 45.2063017,83.9890244 45.2063017,82.902439 L45.2063017,71.1914634 C45.2063017,70.104878 44.3238362,69.2195122 43.2408103,69.2195122 L31.5681983,69.2195122 Z" id="Shape" fill="#4A555F"></path>
                        <path d="M31.9292069,83.1841463 C31.6083103,83.1841463 31.3275259,82.902439 31.3275259,82.5804878 L31.3275259,71.5536585 C31.3275259,71.2317073 31.6083103,70.95 31.9292069,70.95 L42.9199138,70.95 C43.2408103,70.95 43.5215948,71.2317073 43.5215948,71.5536585 L43.5215948,82.5804878 C43.5215948,82.902439 43.2408103,83.1841463 42.9199138,83.1841463 L31.9292069,83.1841463 Z" id="Shape" fill="#0BD4FF"></path>
                        <path d="M50.4208707,76.0609756 L50.4208707,84.2304878 C50.4208707,87.6914634 47.6130259,90.5085366 44.1633879,90.5085366 L36.0206379,90.5085366 C34.6167155,90.5085366 33.4935776,89.4621951 33.3331293,88.0939024 L43.2408103,88.0939024 C46.0887672,88.0939024 48.3751552,85.8 48.3751552,82.9426829 L48.3751552,73.4853659 C49.5785172,73.7670732 50.4208707,74.8134146 50.4208707,76.0609756 Z" id="Shape" fill="#E0E0E0"></path>
                        <path d="M71.6000431,86.3634146 L59.927431,86.3634146 C58.0421638,86.3634146 56.4777931,84.8341463 56.4777931,82.902439 L56.4777931,71.1914634 C56.4777931,69.3 58.0020517,67.7304878 59.927431,67.7304878 L71.6000431,67.7304878 C73.4853103,67.7304878 75.049681,69.2597561 75.049681,71.1914634 L75.049681,82.902439 C75.049681,84.8341463 73.5254224,86.3634146 71.6000431,86.3634146 Z M59.927431,69.2195122 C58.8444052,69.2195122 57.9619397,70.104878 57.9619397,71.1914634 L57.9619397,82.902439 C57.9619397,83.9890244 58.8444052,84.8743902 59.927431,84.8743902 L71.6000431,84.8743902 C72.683069,84.8743902 73.5655345,83.9890244 73.5655345,82.902439 L73.5655345,71.1914634 C73.5655345,70.104878 72.683069,69.2195122 71.6000431,69.2195122 L59.927431,69.2195122 Z" id="Shape" fill="#4A555F"></path>
                        <path d="M60.2884397,83.1841463 C59.9675431,83.1841463 59.6867586,82.902439 59.6867586,82.5804878 L59.6867586,71.5536585 C59.6867586,71.2317073 59.9675431,70.95 60.2884397,70.95 L71.2791466,70.95 C71.6000431,70.95 71.8808276,71.2317073 71.8808276,71.5536585 L71.8808276,82.5804878 C71.8808276,82.902439 71.6000431,83.1841463 71.2791466,83.1841463 L60.2884397,83.1841463 Z" id="Shape" fill="#0BD4FF"></path>
                        <path d="M78.7801034,76.0609756 L78.7801034,84.2304878 C78.7801034,87.6914634 75.9722586,90.5085366 72.5226207,90.5085366 L64.3798707,90.5085366 C62.9759483,90.5085366 61.8528103,89.4621951 61.6923621,88.0939024 L71.6000431,88.0939024 C74.448,88.0939024 76.7343879,85.8 76.7343879,82.9426829 L76.7343879,73.4853659 C77.93775,73.7670732 78.7801034,74.8134146 78.7801034,76.0609756 Z" id="Shape" fill="#E0E0E0"></path>
                        <path d="M99.9592759,86.3634146 L88.2866638,86.3634146 C86.4013966,86.3634146 84.8370259,84.8341463 84.8370259,82.902439 L84.8370259,71.1914634 C84.8370259,69.3 86.3612845,67.7304878 88.2866638,67.7304878 L99.9592759,67.7304878 C101.844543,67.7304878 103.408914,69.2597561 103.408914,71.1914634 L103.408914,82.902439 C103.408914,84.8341463 101.884655,86.3634146 99.9592759,86.3634146 Z M88.2866638,69.2195122 C87.2036379,69.2195122 86.3211724,70.104878 86.3211724,71.1914634 L86.3211724,82.902439 C86.3211724,83.9890244 87.2036379,84.8743902 88.2866638,84.8743902 L99.9592759,84.8743902 C101.042302,84.8743902 101.924767,83.9890244 101.924767,82.902439 L101.924767,71.1914634 C101.924767,70.104878 101.042302,69.2195122 99.9592759,69.2195122 L88.2866638,69.2195122 Z" id="Shape" fill="#4A555F"></path>
                        <path d="M88.6476724,83.1841463 C88.3267759,83.1841463 88.0459914,82.902439 88.0459914,82.5804878 L88.0459914,71.5536585 C88.0459914,71.2317073 88.3267759,70.95 88.6476724,70.95 L99.6383793,70.95 C99.9592759,70.95 100.24006,71.2317073 100.24006,71.5536585 L100.24006,82.5804878 C100.24006,82.902439 99.9592759,83.1841463 99.6383793,83.1841463 L88.6476724,83.1841463 Z" id="Shape" fill="#0BD4FF"></path>
                        <path d="M107.139336,76.0609756 L107.139336,84.2304878 C107.139336,87.6914634 104.331491,90.5085366 100.881853,90.5085366 L92.7391034,90.5085366 C91.335181,90.5085366 90.2120431,89.4621951 90.0515948,88.0939024 L99.9592759,88.0939024 C102.807233,88.0939024 105.093621,85.8 105.093621,82.9426829 L105.093621,73.4853659 C106.296983,73.7670732 107.139336,74.8134146 107.139336,76.0609756 Z" id="Shape" fill="#E0E0E0"></path>
                        <path d="M43.2809224,114.493902 L31.6083103,114.493902 C29.7230431,114.493902 28.1586724,112.964634 28.1586724,111.032927 L28.1586724,99.3219512 C28.1586724,97.4304878 29.682931,95.8609756 31.6083103,95.8609756 L43.2809224,95.8609756 C45.1661897,95.8609756 46.7305603,97.3902439 46.7305603,99.3219512 L46.7305603,111.032927 C46.6904483,112.92439 45.1661897,114.493902 43.2809224,114.493902 Z M31.5681983,97.35 C30.4851724,97.35 29.6027069,98.2353659 29.6027069,99.3219512 L29.6027069,111.032927 C29.6027069,112.119512 30.4851724,113.004878 31.5681983,113.004878 L43.2408103,113.004878 C44.3238362,113.004878 45.2063017,112.119512 45.2063017,111.032927 L45.2063017,99.3219512 C45.2063017,98.2353659 44.3238362,97.35 43.2408103,97.35 L31.5681983,97.35 Z" id="Shape" fill="#4A555F"></path>
                        <path d="M31.9292069,111.27439 C31.6083103,111.27439 31.3275259,110.992683 31.3275259,110.670732 L31.3275259,99.6439024 C31.3275259,99.3219512 31.6083103,99.0402439 31.9292069,99.0402439 L42.9199138,99.0402439 C43.2408103,99.0402439 43.5215948,99.3219512 43.5215948,99.6439024 L43.5215948,110.670732 C43.5215948,110.992683 43.2408103,111.27439 42.9199138,111.27439 L31.9292069,111.27439 Z" id="Shape" fill="#0BD4FF"></path>
                        <path d="M50.4208707,104.191463 L50.4208707,112.360976 C50.4208707,115.821951 47.6130259,118.639024 44.1633879,118.639024 L36.0206379,118.639024 C34.6167155,118.639024 33.4935776,117.592683 33.3331293,116.22439 L43.2408103,116.22439 C46.0887672,116.22439 48.3751552,113.930488 48.3751552,111.073171 L48.3751552,101.615854 C49.5785172,101.857317 50.4208707,102.903659 50.4208707,104.191463 Z" id="Shape" fill="#E0E0E0"></path>
                        <path d="M71.6000431,114.493902 L59.927431,114.493902 C58.0421638,114.493902 56.4777931,112.964634 56.4777931,111.032927 L56.4777931,99.3219512 C56.4777931,97.4304878 58.0020517,95.8609756 59.927431,95.8609756 L71.6000431,95.8609756 C73.4853103,95.8609756 75.049681,97.3902439 75.049681,99.3219512 L75.049681,111.032927 C75.049681,112.92439 73.5254224,114.493902 71.6000431,114.493902 Z M59.927431,97.35 C58.8444052,97.35 57.9619397,98.2353659 57.9619397,99.3219512 L57.9619397,111.032927 C57.9619397,112.119512 58.8444052,113.004878 59.927431,113.004878 L71.6000431,113.004878 C72.683069,113.004878 73.5655345,112.119512 73.5655345,111.032927 L73.5655345,99.3219512 C73.5655345,98.2353659 72.683069,97.35 71.6000431,97.35 L59.927431,97.35 Z" id="Shape" fill="#4A555F"></path>
                        <path d="M60.2884397,111.27439 C59.9675431,111.27439 59.6867586,110.992683 59.6867586,110.670732 L59.6867586,99.6439024 C59.6867586,99.3219512 59.9675431,99.0402439 60.2884397,99.0402439 L71.2791466,99.0402439 C71.6000431,99.0402439 71.8808276,99.3219512 71.8808276,99.6439024 L71.8808276,110.670732 C71.8808276,110.992683 71.6000431,111.27439 71.2791466,111.27439 L60.2884397,111.27439 Z" id="Shape" fill="#0BD4FF"></path>
                        <path d="M78.7801034,104.191463 L78.7801034,112.360976 C78.7801034,115.821951 75.9722586,118.639024 72.5226207,118.639024 L64.3798707,118.639024 C62.9759483,118.639024 61.8528103,117.592683 61.6923621,116.22439 L71.6000431,116.22439 C74.448,116.22439 76.7343879,113.930488 76.7343879,111.073171 L76.7343879,101.615854 C77.93775,101.857317 78.7801034,102.903659 78.7801034,104.191463 Z" id="Shape" fill="#E0E0E0"></path>
                        <path d="M99.9592759,114.493902 L88.2866638,114.493902 C86.4013966,114.493902 84.8370259,112.964634 84.8370259,111.032927 L84.8370259,99.3219512 C84.8370259,97.4304878 86.3612845,95.8609756 88.2866638,95.8609756 L99.9592759,95.8609756 C101.844543,95.8609756 103.408914,97.3902439 103.408914,99.3219512 L103.408914,111.032927 C103.408914,112.92439 101.884655,114.493902 99.9592759,114.493902 Z M88.2866638,97.35 C87.2036379,97.35 86.3211724,98.2353659 86.3211724,99.3219512 L86.3211724,111.032927 C86.3211724,112.119512 87.2036379,113.004878 88.2866638,113.004878 L99.9592759,113.004878 C101.042302,113.004878 101.924767,112.119512 101.924767,111.032927 L101.924767,99.3219512 C101.924767,98.2353659 101.042302,97.35 99.9592759,97.35 L88.2866638,97.35 Z" id="Shape" fill="#4A555F"></path>
                        <path d="M88.6476724,111.27439 C88.3267759,111.27439 88.0459914,110.992683 88.0459914,110.670732 L88.0459914,99.6439024 C88.0459914,99.3219512 88.3267759,99.0402439 88.6476724,99.0402439 L99.6383793,99.0402439 C99.9592759,99.0402439 100.24006,99.3219512 100.24006,99.6439024 L100.24006,110.670732 C100.24006,110.992683 99.9592759,111.27439 99.6383793,111.27439 L88.6476724,111.27439 Z" id="Shape" fill="#00F1B7"></path>
                        <path d="M107.139336,104.191463 L107.139336,112.360976 C107.139336,115.821951 104.331491,118.639024 100.881853,118.639024 L92.7391034,118.639024 C91.335181,118.639024 90.2120431,117.592683 90.0515948,116.22439 L99.9592759,116.22439 C102.807233,116.22439 105.093621,113.930488 105.093621,111.073171 L105.093621,101.615854 C106.296983,101.857317 107.139336,102.903659 107.139336,104.191463 Z" id="Shape" fill="#E0E0E0"></path>
                        <g transform="translate(34.496379, 73.646341)" fill="#FFFFFF" id="Shape">
                            <polygon points="2.64739655 3.90365854 0.240672414 3.90365854 0.240672414 2.97804878 2.64739655 2.97804878 2.64739655 0.563414634 3.56997414 0.563414634 3.56997414 2.97804878 5.97669828 2.97804878 5.97669828 3.90365854 3.56997414 3.90365854 3.56997414 6.27804878 2.64739655 6.27804878"></polygon>
                            <path d="M3.81064655,6.5195122 L2.40672414,6.5195122 L2.40672414,4.14512195 L0,4.14512195 L0,2.73658537 L2.40672414,2.73658537 L2.40672414,0.32195122 L3.81064655,0.32195122 L3.81064655,2.73658537 L6.21737069,2.73658537 L6.21737069,4.14512195 L3.81064655,4.14512195 L3.81064655,6.5195122 Z M2.88806897,6.03658537 L3.32930172,6.03658537 L3.32930172,3.66219512 L5.73602586,3.66219512 L5.73602586,3.2195122 L3.32930172,3.2195122 L3.32930172,0.804878049 L2.88806897,0.804878049 L2.88806897,3.2195122 L0.481344828,3.2195122 L0.481344828,3.66219512 L2.88806897,3.66219512 L2.88806897,6.03658537 Z"></path>
                        </g>
                        <g transform="translate(90.653276, 73.646341)" fill="#FFFFFF" id="Shape">
                            <path d="M0.601681034,3.58170732 C0.601681034,1.77073171 1.84515517,0.523170732 3.56997414,0.523170732 C4.45243966,0.523170732 5.37501724,0.885365854 5.97669828,1.5695122 L5.2947931,2.17317073 C4.93378448,1.7304878 4.33210345,1.40853659 3.65019828,1.40853659 C2.44683621,1.40853659 1.64459483,2.29390244 1.64459483,3.54146341 C1.64459483,4.82926829 2.48694828,5.67439024 3.65019828,5.67439024 C4.33210345,5.67439024 4.97389655,5.39268293 5.33490517,4.95 L6.01681034,5.55365854 C5.49535345,6.11707317 4.61288793,6.5597561 3.56997414,6.5597561 C1.84515517,6.6 0.601681034,5.39268293 0.601681034,3.58170732 Z"></path>
                            <path d="M3.52986207,6.84146341 C1.64459483,6.84146341 0.361008621,5.47317073 0.361008621,3.54146341 C0.361008621,1.6097561 1.6847069,0.241463415 3.56997414,0.241463415 C4.57277586,0.241463415 5.53546552,0.684146341 6.13714655,1.40853659 L6.29759483,1.6097561 L5.25468103,2.53536585 L5.09423276,2.33414634 C4.73322414,1.93170732 4.21176724,1.6902439 3.61008621,1.6902439 C2.56717241,1.6902439 1.84515517,2.45487805 1.84515517,3.58170732 C1.84515517,4.70853659 2.56717241,5.47317073 3.61008621,5.47317073 C4.17165517,5.47317073 4.77333621,5.23170732 5.09423276,4.82926829 L5.25468103,4.62804878 L6.29759483,5.55365854 L6.13714655,5.75487805 C5.57557759,6.43902439 4.57277586,6.84146341 3.52986207,6.84146341 Z M3.56997414,0.764634146 C1.96549138,0.764634146 0.842353448,1.93170732 0.842353448,3.58170732 C0.842353448,5.23170732 1.96549138,6.39878049 3.52986207,6.39878049 C4.33210345,6.39878049 5.09423276,6.11707317 5.61568966,5.63414634 L5.2947931,5.35243902 C4.85356034,5.75487805 4.25187931,5.95609756 3.61008621,5.95609756 C2.28638793,5.95609756 1.36381034,4.9902439 1.36381034,3.58170732 C1.36381034,2.17317073 2.28638793,1.20731707 3.61008621,1.20731707 C4.25187931,1.20731707 4.85356034,1.44878049 5.2947931,1.85121951 L5.61568966,1.5695122 C5.09423276,1.04634146 4.37221552,0.764634146 3.56997414,0.764634146 Z"></path>
                        </g>
                        <g transform="translate(63.377069, 74.048780)" fill="#FFFFFF" id="Shape">
                            <polygon points="2.04571552 2.93780488 0.361008621 1.24756098 1.00280172 0.603658537 2.68750862 2.29390244 4.37221552 0.603658537 5.01400862 1.24756098 3.32930172 2.93780488 5.01400862 4.62804878 4.37221552 5.27195122 2.68750862 3.58170732 1.00280172 5.27195122 0.361008621 4.62804878"></polygon>
                            <path d="M4.37221552,5.63414634 L2.68750862,3.94390244 L1.00280172,5.63414634 L0,4.62804878 L1.6847069,2.93780488 L0,1.24756098 L1.00280172,0.241463415 L2.68750862,1.93170732 L4.37221552,0.241463415 L5.37501724,1.24756098 L3.69031034,2.93780488 L5.37501724,4.62804878 L4.37221552,5.63414634 Z M2.68750862,3.2597561 L4.37221552,4.95 L4.69311207,4.62804878 L3.00840517,2.93780488 L4.69311207,1.24756098 L4.37221552,0.925609756 L2.68750862,2.61585366 L1.00280172,0.925609756 L0.681905172,1.24756098 L2.36661207,2.93780488 L0.681905172,4.62804878 L1.00280172,4.95 L2.68750862,3.2597561 Z"></path>
                        </g>
                        <g transform="translate(35.298621, 104.231707)" fill="#FFFFFF" id="Shape">
                            <polygon points="0.40112069 0.442682927 4.0112069 0.442682927 4.0112069 1.40853659 0.40112069 1.40853659"></polygon>
                            <path d="M4.29199138,1.65 L0.200560345,1.65 L0.200560345,0.201219512 L4.29199138,0.201219512 L4.29199138,1.65 Z M0.681905172,1.16707317 L3.81064655,1.16707317 L3.81064655,0.684146341 L0.681905172,0.684146341 L0.681905172,1.16707317 Z"></path>
                        </g>
                        <g transform="translate(64.981552, 101.414634)" fill="#FFFFFF" id="Shape">
                            <path d="M0.40112069,1.16707317 C0.40112069,0.764634146 0.722017241,0.482926829 1.12313793,0.482926829 C1.52425862,0.482926829 1.8050431,0.804878049 1.8050431,1.16707317 C1.8050431,1.52926829 1.48414655,1.85121951 1.12313793,1.85121951 C0.722017241,1.85121951 0.40112069,1.52926829 0.40112069,1.16707317 Z M0.40112069,5.87560976 C0.40112069,5.47317073 0.722017241,5.19146341 1.12313793,5.19146341 C1.52425862,5.19146341 1.8050431,5.51341463 1.8050431,5.87560976 C1.8050431,6.23780488 1.48414655,6.5597561 1.12313793,6.5597561 C0.722017241,6.5597561 0.40112069,6.23780488 0.40112069,5.87560976 Z"></path>
                            <path d="M1.12313793,6.80121951 C0.601681034,6.80121951 0.160448276,6.39878049 0.160448276,5.87560976 C0.160448276,5.35243902 0.561568966,4.95 1.12313793,4.95 C1.64459483,4.95 2.08582759,5.39268293 2.08582759,5.87560976 C2.04571552,6.35853659 1.64459483,6.80121951 1.12313793,6.80121951 Z M1.12313793,5.39268293 C0.882465517,5.39268293 0.641793103,5.59390244 0.641793103,5.83536585 C0.641793103,6.07682927 0.842353448,6.27804878 1.12313793,6.27804878 C1.36381034,6.27804878 1.56437069,6.07682927 1.56437069,5.83536585 C1.56437069,5.59390244 1.36381034,5.39268293 1.12313793,5.39268293 Z M1.12313793,2.09268293 C0.601681034,2.09268293 0.160448276,1.6902439 0.160448276,1.16707317 C0.160448276,0.643902439 0.561568966,0.241463415 1.12313793,0.241463415 C1.64459483,0.241463415 2.08582759,0.684146341 2.08582759,1.16707317 C2.04571552,1.6902439 1.64459483,2.09268293 1.12313793,2.09268293 Z M1.12313793,0.684146341 C0.882465517,0.684146341 0.641793103,0.885365854 0.641793103,1.12682927 C0.641793103,1.36829268 0.842353448,1.5695122 1.12313793,1.5695122 C1.36381034,1.5695122 1.56437069,1.36829268 1.56437069,1.12682927 C1.56437069,0.925609756 1.36381034,0.684146341 1.12313793,0.684146341 Z"></path>
                        </g>
                        <g transform="translate(91.054397, 102.621951)" fill="#FFFFFF" id="Shape">
                            <path d="M0.40112069,0.442682927 L6.09703448,0.442682927 L6.09703448,1.36829268 L0.40112069,1.36829268 L0.40112069,0.442682927 Z M0.40112069,3.2195122 L6.09703448,3.2195122 L6.09703448,4.14512195 L0.40112069,4.14512195 L0.40112069,3.2195122 Z"></path>
                            <path d="M6.37781897,4.38658537 L0.200560345,4.38658537 L0.200560345,2.97804878 L6.37781897,2.97804878 L6.37781897,4.38658537 Z M0.641793103,3.90365854 L5.85636207,3.90365854 L5.85636207,3.46097561 L0.641793103,3.46097561 L0.641793103,3.90365854 Z M6.37781897,1.65 L0.200560345,1.65 L0.200560345,0.241463415 L6.37781897,0.241463415 L6.37781897,1.65 Z M0.641793103,1.12682927 L5.85636207,1.12682927 L5.85636207,0.684146341 L0.641793103,0.684146341 L0.641793103,1.12682927 Z"></path>
                        </g>
                        <rect id="Rectangle-path" fill="#FFFFFF" x="63.4974052" y="104.553659" width="5.21456897" height="1"></rect>
                        <path d="M96.8706466,45.1536585 L90.4527155,45.1536585 L89.7306983,44.2682927 L92.1775345,33 L92.8995517,32.4365854 L99.3174828,32.4365854 L100.0395,33.3219512 L97.5926638,44.5902439 L96.8706466,45.1536585 Z M91.3752931,43.6646341 L96.2689655,43.6646341 L98.3949052,33.8853659 L93.5012328,33.8853659 L91.3752931,43.6646341 Z" id="Shape" fill="#4A555F"></path>
                    </g>
                </g>
                <path d="M28.4951724,13.5 L20.25,17.9997813 L20.25,27.0001726 L28.4951724,31.5 L36.4679607,27.1491111 L36.4684459,27.1499398 L36.5837264,27.0858986 L36.6587363,27.0449232 L36.7405874,27.0001726 L36.7405874,26.9986994 L36.75,26.9934969 L36.7405874,26.9781657 L36.7405874,17.9997813 L28.4951724,13.5 Z M28.575762,13.9011438 L36.0366779,17.9728021 L26.1107689,17.9728021 L28.575762,13.9011438 Z M20.758282,18.079476 L28.0932434,14.0765551 L23.2016357,22.1567511 L20.758282,18.079476 Z M31.3693722,18.282419 L36.414202,18.282419 L36.414202,26.4497681 L31.3693722,18.282419 Z M26.0230956,18.282419 L30.6658509,18.282419 L26.0230956,20.7875767 L26.0230956,18.282419 Z M20.5762398,18.4019841 L25.5677476,26.7312088 L20.5762398,26.7312088 L20.5762398,18.4019841 Z M28.8296604,19.6292641 L31.0748636,18.4178217 L33.3425796,22.0892569 L28.8296604,19.6292641 Z M23.4195332,22.4183946 L25.6969044,18.6565835 L25.6969044,23.6598089 L23.4195332,22.4183946 Z M28.5636323,19.8413229 L30.5311145,20.9138175 L27.9144034,20.9138175 L28.5636323,19.8413229 Z M26.0865581,21.1094862 L28.066364,20.0412273 L26.7497118,22.2160962 L26.0865581,21.1094862 Z M29.6858215,21.2233424 L30.974624,21.2233424 L30.974624,23.3740405 L29.6858215,21.2233424 Z M26.936897,22.5284755 L27.7269757,21.2233424 L29.3104323,21.2233424 L30.0528655,22.4621784 L29.2594391,23.7727903 L27.682484,23.7727903 L26.936897,22.5284755 Z M31.3008153,21.3333312 L33.5609138,22.5653073 L31.3008153,26.2986198 L31.3008153,21.3333312 Z M26.0230956,21.6298268 L27.3071918,23.7727903 L26.0230956,23.7727903 L26.0230956,21.6298268 Z M30.2400022,22.7745117 L30.9059215,23.8857256 L28.9179159,24.9584505 L30.2400022,22.7745117 Z M33.788418,22.8110211 L36.3028516,26.8819427 L28.8675535,30.9395588 L33.788418,22.8110211 Z M23.6466493,22.8993253 L28.1673315,25.3634616 L25.8671565,26.6046917 L23.6466493,22.8993253 Z M26.4719907,24.0823151 L29.0720598,24.0823151 L28.4269551,25.1479038 L26.4719907,24.0823151 Z M30.974624,24.2048268 L30.974624,26.7312088 L26.2928597,26.7312088 L30.974624,24.2048268 Z M20.978751,27.0408717 L30.8514835,27.0408717 L28.3997846,31.0906611 L20.978751,27.0408717 Z" id="Fill-3-Copy-4" stroke="#FFFFFF" stroke-width="0.5" fill="#FFFFFF"></path>
            </g>
        </g>
    </g>
</svg>