<?xml version="1.0" encoding="UTF-8"?>
<svg width="174px" height="140px" viewBox="0 0 174 140" version="1.1" xmlns="http://www.w3.org/2000/svg" xmlns:xlink="http://www.w3.org/1999/xlink">
    <!-- Generator: Sketch 49.1 (51147) - http://www.bohemiancoding.com/sketch -->
    <title>smart-contracts-icn</title>
    <desc>Created with Sketch.</desc>
    <defs></defs>
    <g id="Website-V1" stroke="none" stroke-width="1" fill="none" fill-rule="evenodd">
        <g transform="translate(-1120.000000, -1035.000000)" fill-rule="nonzero" id="smart-contracts-icn">
            <g transform="translate(1120.000000, 1035.000000)">
                <path d="M104.452727,12.6842105 C102.501818,10.7368421 99.8654545,9.57894737 96.9127273,9.57894737 L57.7363636,9.57894737 C57.7363636,9.57894737 57.7363636,9.57894737 57.7363636,9.57894737 C55.1,9.78947368 52.78,10.9473684 51.04,12.6842105 C49.1418182,14.6315789 47.9290909,17.2631579 47.9290909,20.2105263 L47.9290909,71.6842105 L38.1218182,71.6842105 L28.3145455,71.6842105 C28.3145455,74.6315789 29.5272727,77.2631579 31.4254545,79.2105263 C33.1654545,80.9473684 35.5381818,82.1052632 38.1218182,82.2631579 C38.1218182,82.2631579 38.1218182,82.2631579 38.1218182,82.2631579 L77.2981818,82.3157895 C79.46,82.3157895 81.5163636,81.6842105 83.2036364,80.5263158 L83.2036364,52.8947368 C83.2036364,49.1052632 84.7327273,45.6315789 87.2636364,43.1052632 C87.4745455,42.8947368 87.7381818,42.6842105 87.9490909,42.4736842 L87.9490909,20.1578947 L107.563636,20.1578947 C107.563636,17.2631579 106.350909,14.5789474 104.452727,12.6842105 Z" id="Shape" fill="#FFFFFF"></path>
                <path d="M135.192727,52.9473684 L160.765455,52.9473684 C160.765455,49.1052632 159.236364,45.6842105 156.705455,43.1578947 C154.174545,40.6315789 150.747273,39.1052632 146.898182,39.1052632 L95.9109091,39.1052632 C92.5363636,39.3684211 89.4781818,40.8947368 87.1581818,43.1578947 C84.68,45.6842105 83.0981818,49.1052632 83.0981818,52.9473684 L83.0981818,113.210526 L70.3381818,113.210526 L57.5781818,113.210526 C57.5781818,117.052632 59.1072727,120.473684 61.6381818,123 C63.9054545,125.263158 66.9636364,126.736842 70.3909091,127 L121.378182,127.052632 C125.227273,127.052632 128.654545,125.526316 131.185455,123 C133.716364,120.473684 135.245455,117.052632 135.245455,113.210526 L135.192727,52.9473684 Z" id="Shape" fill="#FFFFFF"></path>
                <path d="M60.3727273,10.1052632 C60.32,9.94736842 60.2672727,9.73684211 60.2145455,9.57894737 L57.7890909,9.57894737 C55.1527273,9.78947368 52.8327273,10.9473684 51.0927273,12.6842105 C49.1945455,14.6315789 47.9818182,17.2631579 47.9818182,20.2105263 L47.9818182,38.2631579 C55.9436364,34.5789474 61.48,26.5263158 61.48,17.1578947 C61.4272727,14.6842105 61.0581818,12.3157895 60.3727273,10.1052632 Z" id="Shape" fill="#00F1B7"></path>
                <g id="Group" transform="translate(56.418182, 37.894737)">
                    <path d="M13.9727273,90 L13.92,90 C10.44,89.7368421 7.11818182,88.2105263 4.58727273,85.7368421 C1.79272727,82.9473684 0.263636364,79.2105263 0.263636364,75.2631579 L0.263636364,74.3157895 L27.7345455,74.3157895 L27.7345455,75.2631579 C27.7345455,79.2105263 26.2054545,82.9473684 23.4109091,85.7368421 C20.88,88.2105263 17.5581818,89.7368421 14.0781818,90 L13.9727273,90 Z M2.16181818,76.2105263 C2.37272727,79.2631579 3.69090909,82.1578947 5.90545455,84.3684211 C8.06727273,86.5263158 10.9145455,87.8421053 13.9727273,88.1052632 C16.9781818,87.8421053 19.8254545,86.5263158 22.04,84.3684211 C24.2545455,82.1578947 25.52,79.3157895 25.7836364,76.2105263 L2.16181818,76.2105263 Z" id="Shape" fill="#4A555F"></path>
                    <path d="M17.9272727,84.4210526 C15.4490909,85.7894737 12.4436364,85.7894737 9.91272727,84.4210526 C9.06909091,83.9473684 8.27818182,83.3684211 7.54,82.6315789 C6.38,81.4736842 5.53636364,80.1052632 5.00909091,78.5789474 L22.7254545,78.5789474 C22.1981818,80.1052632 21.3545455,81.4736842 20.1945455,82.6315789 C19.5618182,83.3684211 18.7709091,83.9473684 17.9272727,84.4210526 Z" id="Shape" fill="#83E9FF"></path>
                    <g transform="translate(13.709091, 0.000000)" id="Shape">
                        <path d="M91.5872727,16 L37.5945455,16 L37.5945455,15.0526316 C37.5945455,11.6315789 36.2763636,8.36842105 33.7981818,5.94736842 C31.5836364,3.73684211 28.6836364,2.42105263 25.6781818,2.15789474 L25.7309091,0.210526316 L76.7181818,0.210526316 C80.6727273,0.210526316 84.4163636,1.73684211 87.2109091,4.52631579 C90.0054545,7.31578947 91.5345455,11.0526316 91.5345455,15 L91.5345455,16 L91.5872727,16 Z M39.5454545,14.0526316 L89.6363636,14.0526316 C89.4254545,11 88.1072727,8.10526316 85.8927273,5.89473684 C83.4672727,3.47368421 80.1981818,2.15789474 76.7709091,2.15789474 L32.0581818,2.15789474 C33.1654545,2.78947368 34.2727273,3.63157895 35.2218182,4.57894737 C37.8054545,7.15789474 39.2818182,10.4736842 39.5454545,14.0526316 Z" fill="#4A555F"></path>
                        <path d="M51.1981818,90.0526316 L0.210909091,90 L0.158181818,88.0526316 C3.21636364,87.8421053 6.11636364,86.4736842 8.27818182,84.3157895 C10.7036364,81.8947368 12.0218182,78.6315789 12.0218182,75.2105263 L12.0218182,14.9473684 C12.0218182,11 13.5509091,7.31578947 16.3454545,4.52631579 C18.8763636,2 22.1981818,0.473684211 25.6781818,0.210526316 L25.7309091,0.210526316 L25.7836364,0.210526316 C29.2636364,0.473684211 32.5854545,2 35.1163636,4.52631579 C37.7,7.10526316 39.1763636,10.4210526 39.44,14 L65.9618182,14 L65.9618182,75.2105263 C65.9618182,79.1578947 64.4327273,82.8947368 61.6381818,85.6842105 C58.8963636,88.5263158 55.1527273,90.0526316 51.1981818,90.0526316 Z M6.53818182,88.1052632 L51.1981818,88.1578947 C54.6254545,88.1578947 57.8945455,86.8421053 60.32,84.3684211 C62.6927273,82 64.0109091,78.8421053 64.0636364,75.4736842 L64.0636364,75.2631579 L64.0636364,16 L37.5945455,16 L37.5945455,15.0526316 C37.5945455,11.6315789 36.2236364,8.42105263 33.7981818,5.94736842 C31.5836364,3.78947368 28.7363636,2.42105263 25.7309091,2.21052632 C22.7254545,2.47368421 19.8781818,3.78947368 17.6636364,5.94736842 C15.2381818,8.36842105 13.92,11.6315789 13.92,15.0526316 L13.92,75.3157895 C13.92,79.2631579 12.3909091,83 9.59636364,85.7894737 C8.7,86.6315789 7.64545455,87.4210526 6.53818182,88.1052632 Z" fill="#4A555F"></path>
                        <path d="M61.6909091,29.4210526 L61.6909091,18.3684211 L35.2218182,18.3684211 L35.2218182,15 C35.2218182,12.2105263 34.1145455,9.57894737 32.1636364,7.63157895 C30.4236364,5.89473684 28.1563636,4.78947368 25.7836364,4.57894737 C23.4109091,4.84210526 21.1963636,5.89473684 19.4563636,7.63157895 C17.4527273,9.63157895 16.3981818,12.2631579 16.3981818,15.0526316 L16.3981818,29.4736842 L61.6909091,29.4210526 Z" fill="#0BD4FF"></path>
                    </g>
                </g>
                <g id="Group" transform="translate(26.890909, 8.421053)">
                    <path d="M11.1781818,74.7894737 L11.1254545,74.7894737 C8.38363636,74.5789474 5.8,73.3684211 3.79636364,71.4210526 C1.58181818,69.2105263 0.421818182,66.3157895 0.421818182,63.2105263 L0.421818182,62.2631579 L21.9872727,62.2631579 L21.9872727,63.2105263 C21.9872727,66.3157895 20.7745455,69.2105263 18.6127273,71.4210526 C16.6618182,73.3684211 14.0254545,74.5789474 11.2836364,74.7894737 L11.1781818,74.7894737 Z M2.37272727,64.2105263 C2.58363636,66.4210526 3.58545455,68.4736842 5.16727273,70.1052632 C6.80181818,71.7368421 8.91090909,72.6842105 11.1781818,72.8947368 C13.4454545,72.6842105 15.5545455,71.7368421 17.1890909,70.1052632 C18.7709091,68.5263158 19.7727273,66.4210526 19.9836364,64.2105263 L2.37272727,64.2105263 Z" id="Shape" fill="#4A555F"></path>
                    <path d="M11.1781818,70.4736842 C9.54363636,70.3157895 8.01454545,69.5789474 6.85454545,68.3684211 C6.32727273,67.8421053 5.90545455,67.2631579 5.53636364,66.5789474 L16.82,66.5789474 C16.5036364,67.2105263 16.0290909,67.8421053 15.5018182,68.3684211 C14.3418182,69.5263158 12.8127273,70.2631579 11.1781818,70.4736842 Z" id="Shape" fill="#83E9FF"></path>
                    <g transform="translate(11.072727, 0.000000)" fill="#4A555F" id="Shape">
                        <path d="M70.5490909,12.7368421 L28.6309091,12.7368421 L28.6309091,11.7894737 C28.6309091,9.21052632 27.6290909,6.78947368 25.7836364,4.94736842 C24.0963636,3.31578947 21.9345455,2.31578947 19.6672727,2.10526316 L19.72,0.157894737 L58.8963636,0.157894737 C62.0072727,0.157894737 64.9072727,1.36842105 67.1218182,3.52631579 C69.3363636,5.73684211 70.4963636,8.63157895 70.4963636,11.7368421 L70.4963636,12.7368421 L70.5490909,12.7368421 Z M30.5290909,10.7894737 L68.5981818,10.7894737 C68.3872727,8.57894737 67.3854545,6.52631579 65.8036364,4.89473684 C63.9581818,3.05263158 61.5327273,2.05263158 58.9490909,2.05263158 L25.3618182,2.05263158 C25.9945455,2.47368421 26.5745455,2.94736842 27.1545455,3.52631579 C29.1054545,5.52631579 30.3181818,8.05263158 30.5290909,10.7894737 Z"></path>
                        <path d="M39.2818182,74.8421053 L0.105454545,74.7894737 L0.0527272727,72.8421053 C2.32,72.6842105 4.48181818,71.6842105 6.16909091,70.0526316 C7.06545455,69.1578947 7.75090909,68.1052632 8.22545455,66.9473684 C8.75272727,65.7368421 8.96363636,64.4736842 8.96363636,63.2105263 L8.96363636,11.7368421 C8.96363636,8.63157895 10.1763636,5.73684211 12.3381818,3.52631579 C14.3418182,1.52631579 16.9254545,0.315789474 19.6672727,0.157894737 L19.72,0.157894737 L19.7727273,0.157894737 C22.5145455,0.368421053 25.0981818,1.57894737 27.1018182,3.52631579 C27.6290909,4.05263158 28.1036364,4.63157895 28.5254545,5.26315789 C28.7363636,5.57894737 28.9472727,5.89473684 29.1054545,6.21052632 C29.4745455,6.84210526 29.7381818,7.57894737 30.0018182,8.26315789 C30.1072727,8.57894737 30.2127273,9 30.2654545,9.36842105 C30.3709091,9.78947368 30.4236364,10.2631579 30.4763636,10.7368421 L50.8818182,10.7368421 L50.8818182,34.4736842 L50.5654545,34.7368421 C50.3545455,34.9473684 50.1436364,35.1052632 49.9327273,35.3157895 C47.5072727,37.7368421 46.1890909,41 46.1890909,44.4210526 L46.1890909,72.5263158 L45.7672727,72.7894737 C43.8163636,74.1578947 41.6018182,74.8421053 39.2818182,74.8421053 Z M5.74727273,72.8947368 L39.2818182,72.9473684 C41.0218182,72.9473684 42.7090909,72.4736842 44.2381818,71.6315789 L44.2381818,44.5789474 C44.2381818,40.6315789 45.7672727,36.9473684 48.5618182,34.1578947 C48.72,34 48.8254545,33.8947368 48.9836364,33.7368421 L48.9836364,12.7894737 L28.6309091,12.7894737 L28.6309091,11.8421053 C28.6309091,11.6315789 28.6309091,11.4736842 28.6309091,11.2631579 C28.5781818,10.7894737 28.5254545,10.3157895 28.4727273,9.89473684 C28.42,9.57894737 28.3145455,9.26315789 28.2618182,9 C28.0509091,8.36842105 27.84,7.78947368 27.5236364,7.26315789 C27.3654545,7 27.2072727,6.73684211 27.0490909,6.47368421 C26.68,5.94736842 26.3109091,5.47368421 25.8890909,5.05263158 C24.2545455,3.42105263 22.0927273,2.42105263 19.8781818,2.21052632 C17.6636364,2.42105263 15.5018182,3.42105263 13.8672727,5.05263158 C12.0218182,6.89473684 11.02,9.31578947 11.02,11.8947368 L11.02,63.3684211 C11.02,64.9473684 10.7036364,66.4736842 10.1236364,67.8947368 C9.54363636,69.2631579 8.7,70.5263158 7.64545455,71.5789474 C6.96,72 6.38,72.4736842 5.74727273,72.8947368 Z"></path>
                    </g>
                </g>
                <path d="M58.9490909,133.473684 C42.4454545,133.473684 29.0527273,120.105263 29.0527273,103.631579 C29.0527273,99.3684211 29.9490909,95.2631579 31.6890909,91.3684211 L33.4290909,92.1578947 C31.7945455,95.7894737 30.9509091,99.6315789 30.9509091,103.631579 C30.9509091,119.052632 43.5,131.526316 58.8963636,131.526316 C60.5309091,131.526316 62.1127273,131.368421 63.6945455,131.105263 L64.0109091,133 C62.4290909,133.315789 60.6890909,133.473684 58.9490909,133.473684 Z" id="Shape" fill="#4A555F"></path>
                <path d="M138.936364,29.8421053 L136.985455,29.8421053 C136.985455,14.4210526 124.436364,1.94736842 109.04,1.94736842 C105.190909,1.94736842 101.447273,2.73684211 97.9672727,4.21052632 L97.1763636,2.42105263 C100.92,0.789473684 104.927273,0 109.04,0 C125.490909,0 138.936364,13.4210526 138.936364,29.8421053 Z" id="Shape" fill="#4A555F"></path>
                <polygon id="Shape" fill="#4A555F" points="36.3290909 101.473684 32.1636364 93.1052632 23.7272727 98 22.7781818 96.3157895 33.0072727 90.4210526 38.0690909 100.631579"></polygon>
                <polygon id="Shape" fill="#4A555F" points="138.250909 31.2631579 129.392727 24.1578947 130.605455 22.6315789 137.934545 28.5263158 143.523636 21.1578947 145.052727 22.3157895"></polygon>
                <ellipse id="Oval" fill="#FFFFFF" cx="41.2854545" cy="18.2105263" rx="15.9763636" ry="15.9473684"></ellipse>
                <path d="M41.2854545,35.1052632 C31.9527273,35.1052632 24.36,27.5263158 24.36,18.2105263 C24.36,8.89473684 31.9527273,1.31578947 41.2854545,1.31578947 C50.6181818,1.31578947 58.2109091,8.89473684 58.2109091,18.2105263 C58.2109091,27.5263158 50.6181818,35.1052632 41.2854545,35.1052632 Z M41.2854545,3.21052632 C33.0072727,3.21052632 26.3109091,9.94736842 26.3109091,18.1578947 C26.3109091,26.4210526 33.06,33.1052632 41.2854545,33.1052632 C49.5109091,33.1052632 56.26,26.3684211 56.26,18.1578947 C56.26,9.94736842 49.5636364,3.21052632 41.2854545,3.21052632 Z" id="Shape" fill="#4A555F"></path>
                <path d="M41.6545455,30.4210526 L41.6018182,28.4736842 C42.1818182,28.4736842 42.7618182,28.3684211 43.3418182,28.2631579 L43.7109091,30.1578947 C43.0781818,30.3157895 42.34,30.3684211 41.6545455,30.4210526 Z M39.5454545,30.3157895 C38.86,30.2105263 38.1745455,30.0526316 37.4890909,29.8421053 L38.0690909,28 C38.6490909,28.1578947 39.2290909,28.3157895 39.8090909,28.3684211 L39.5454545,30.3157895 Z M45.7145455,29.5789474 L45.0290909,27.7894737 C45.5563636,27.5789474 46.0836364,27.3157895 46.6109091,27 L47.6127273,28.6315789 C47.0327273,29 46.4,29.3157895 45.7145455,29.5789474 Z M35.5909091,29.0526316 C34.9581818,28.7368421 34.3781818,28.3684211 33.8509091,27.9473684 L35.0109091,26.4210526 C35.4854545,26.7894737 35.96,27.1052632 36.4872727,27.3684211 L35.5909091,29.0526316 Z M49.3,27.4210526 L48.0345455,25.9473684 C48.4563636,25.5789474 48.8781818,25.1578947 49.2472727,24.6842105 L50.7236364,25.8947368 C50.3018182,26.4736842 49.8272727,26.9473684 49.3,27.4210526 Z M32.2690909,26.4736842 C31.7945455,25.9473684 31.3727273,25.4210526 31.0036364,24.8421053 L32.6381818,23.7894737 C32.9545455,24.2631579 33.3236364,24.7368421 33.7454545,25.1578947 L32.2690909,26.4736842 Z M51.9363636,24.2105263 L50.2490909,23.2631579 C50.5127273,22.7368421 50.7763636,22.2105263 50.9872727,21.6842105 L52.78,22.3157895 C52.5690909,22.9473684 52.3054545,23.5789474 51.9363636,24.2105263 Z M30.0018182,23 C29.7381818,22.3684211 29.5272727,21.6842105 29.3690909,21 L31.2672727,20.5789474 C31.4254545,21.1578947 31.5836364,21.6842105 31.8472727,22.2631579 L30.0018182,23 Z M53.36,20.2631579 L51.4618182,19.9473684 C51.5672727,19.3684211 51.62,18.7894737 51.62,18.2105263 C51.62,17.7894737 51.5672727,17.3157895 51.5145455,16.8947368 L53.4127273,16.6315789 C53.4654545,17.1578947 53.5181818,17.6315789 53.5181818,18.1578947 C53.5181818,18.8947368 53.4654545,19.5789474 53.36,20.2631579 Z M29.0527273,18.9473684 C29.0527273,18.6842105 29.0527273,18.4210526 29.0527273,18.1578947 C29.0527273,17.7368421 29.0527273,17.2631579 29.1054545,16.8421053 L31.0036364,17.0526316 C30.9509091,17.4210526 30.9509091,17.7894737 30.9509091,18.1578947 C30.9509091,18.3684211 30.9509091,18.5789474 30.9509091,18.7894737 L29.0527273,18.9473684 Z M31.3727273,15.3684211 L29.5272727,14.8421053 C29.7381818,14.1578947 29.9490909,13.5263158 30.2654545,12.8947368 L32.0054545,13.7368421 C31.7418182,14.2105263 31.5309091,14.7894737 31.3727273,15.3684211 Z M51.1454545,15.1578947 C50.9872727,14.5789474 50.7763636,14.0526316 50.5127273,13.5263158 L52.2527273,12.6315789 C52.5690909,13.2631579 52.8327273,13.8947368 53.0436364,14.5789474 L51.1454545,15.1578947 Z M32.9018182,12.2105263 L31.32,11.1052632 C31.7418182,10.5263158 32.1636364,10 32.6909091,9.52631579 L34.0618182,10.8947368 C33.5872727,11.2631579 33.2181818,11.7368421 32.9018182,12.2105263 Z M49.5636364,12.0526316 C49.1945455,11.5789474 48.8254545,11.1578947 48.4036364,10.7368421 L49.7218182,9.31578947 C50.2490909,9.78947368 50.6709091,10.3157895 51.0927273,10.8947368 L49.5636364,12.0526316 Z M35.38,9.73684211 L34.2727273,8.15789474 C34.8527273,7.73684211 35.4327273,7.42105263 36.0654545,7.10526316 L36.8563636,8.84210526 C36.3818182,9.10526316 35.8545455,9.42105263 35.38,9.73684211 Z M47.0327273,9.63157895 C46.5581818,9.31578947 46.0309091,9 45.5036364,8.78947368 L46.2945455,7.05263158 C46.9272727,7.31578947 47.56,7.68421053 48.14,8.05263158 L47.0327273,9.63157895 Z M38.5436364,8.26315789 L38.0163636,6.42105263 C38.7018182,6.26315789 39.3872727,6.10526316 40.0727273,6.05263158 L40.2309091,7.94736842 C39.7036364,8 39.1236364,8.10526316 38.5436364,8.26315789 Z M43.8163636,8.21052632 C43.2363636,8.05263158 42.6563636,7.94736842 42.0763636,7.94736842 L42.2345455,6 C42.92,6.05263158 43.6054545,6.15789474 44.2909091,6.31578947 L43.8163636,8.21052632 Z" id="Shape" fill="#4A555F"></path>
                <path d="M41.6545455,30.4210526 L41.6018182,28.4736842 C42.1818182,28.4736842 42.7618182,28.3684211 43.3418182,28.2631579 L43.7109091,30.1578947 C43.0781818,30.3157895 42.34,30.3684211 41.6545455,30.4210526 Z M39.5454545,30.3157895 C38.86,30.2105263 38.1745455,30.0526316 37.4890909,29.8421053 L38.0690909,28 C38.6490909,28.1578947 39.2290909,28.3157895 39.8090909,28.3684211 L39.5454545,30.3157895 Z M45.7145455,29.5789474 L45.0290909,27.7894737 C45.5563636,27.5789474 46.0836364,27.3157895 46.6109091,27 L47.6127273,28.6315789 C47.0327273,29 46.4,29.3157895 45.7145455,29.5789474 Z M35.5909091,29.0526316 C34.9581818,28.7368421 34.3781818,28.3684211 33.8509091,27.9473684 L35.0109091,26.4210526 C35.4854545,26.7894737 35.96,27.1052632 36.4872727,27.3684211 L35.5909091,29.0526316 Z M49.3,27.4210526 L48.0345455,25.9473684 C48.4563636,25.5789474 48.8781818,25.1578947 49.2472727,24.6842105 L50.7236364,25.8947368 C50.3018182,26.4736842 49.8272727,26.9473684 49.3,27.4210526 Z M32.2690909,26.4736842 C31.7945455,25.9473684 31.3727273,25.4210526 31.0036364,24.8421053 L32.6381818,23.7894737 C32.9545455,24.2631579 33.3236364,24.7368421 33.7454545,25.1578947 L32.2690909,26.4736842 Z M51.9363636,24.2105263 L50.2490909,23.2631579 C50.5127273,22.7368421 50.7763636,22.2105263 50.9872727,21.6842105 L52.78,22.3157895 C52.5690909,22.9473684 52.3054545,23.5789474 51.9363636,24.2105263 Z M30.0018182,23 C29.7381818,22.3684211 29.5272727,21.6842105 29.3690909,21 L31.2672727,20.5789474 C31.4254545,21.1578947 31.5836364,21.6842105 31.8472727,22.2631579 L30.0018182,23 Z M53.36,20.2631579 L51.4618182,19.9473684 C51.5672727,19.3684211 51.62,18.7894737 51.62,18.2105263 C51.62,17.7894737 51.5672727,17.3157895 51.5145455,16.8947368 L53.4127273,16.6315789 C53.4654545,17.1578947 53.5181818,17.6315789 53.5181818,18.1578947 C53.5181818,18.8947368 53.4654545,19.5789474 53.36,20.2631579 Z M29.0527273,18.9473684 C29.0527273,18.6842105 29.0527273,18.4210526 29.0527273,18.1578947 C29.0527273,17.7368421 29.0527273,17.2631579 29.1054545,16.8421053 L31.0036364,17.0526316 C30.9509091,17.4210526 30.9509091,17.7894737 30.9509091,18.1578947 C30.9509091,18.3684211 30.9509091,18.5789474 30.9509091,18.7894737 L29.0527273,18.9473684 Z M31.3727273,15.3684211 L29.5272727,14.8421053 C29.7381818,14.1578947 29.9490909,13.5263158 30.2654545,12.8947368 L32.0054545,13.7368421 C31.7418182,14.2105263 31.5309091,14.7894737 31.3727273,15.3684211 Z M51.1454545,15.1578947 C50.9872727,14.5789474 50.7763636,14.0526316 50.5127273,13.5263158 L52.2527273,12.6315789 C52.5690909,13.2631579 52.8327273,13.8947368 53.0436364,14.5789474 L51.1454545,15.1578947 Z M32.9018182,12.2105263 L31.32,11.1052632 C31.7418182,10.5263158 32.1636364,10 32.6909091,9.52631579 L34.0618182,10.8947368 C33.5872727,11.2631579 33.2181818,11.7368421 32.9018182,12.2105263 Z M49.5636364,12.0526316 C49.1945455,11.5789474 48.8254545,11.1578947 48.4036364,10.7368421 L49.7218182,9.31578947 C50.2490909,9.78947368 50.6709091,10.3157895 51.0927273,10.8947368 L49.5636364,12.0526316 Z M35.38,9.73684211 L34.2727273,8.15789474 C34.8527273,7.73684211 35.4327273,7.42105263 36.0654545,7.10526316 L36.8563636,8.84210526 C36.3818182,9.10526316 35.8545455,9.42105263 35.38,9.73684211 Z M47.0327273,9.63157895 C46.5581818,9.31578947 46.0309091,9 45.5036364,8.78947368 L46.2945455,7.05263158 C46.9272727,7.31578947 47.56,7.68421053 48.14,8.05263158 L47.0327273,9.63157895 Z M38.5436364,8.26315789 L38.0163636,6.42105263 C38.7018182,6.26315789 39.3872727,6.10526316 40.0727273,6.05263158 L40.2309091,7.94736842 C39.7036364,8 39.1236364,8.10526316 38.5436364,8.26315789 Z M43.8163636,8.21052632 C43.2363636,8.05263158 42.6563636,7.94736842 42.0763636,7.94736842 L42.2345455,6 C42.92,6.05263158 43.6054545,6.15789474 44.2909091,6.31578947 L43.8163636,8.21052632 Z" id="Shape" fill="#4A555F"></path>
                <ellipse id="Oval" fill="#DADADA" cx="41.2854545" cy="18.2105263" rx="7.06545455" ry="7.05263158"></ellipse>
                <path d="M85.1018182,23.4210526 L85.1018182,26.9473684 L59.2127273,26.9473684 C60.6363636,23.9473684 61.4272727,20.6315789 61.4272727,17.1052632 C61.4272727,16.0526316 61.3745455,15 61.2163636,14 C65.1709091,17.0526316 64.2218182,23.4210526 64.2218182,23.4210526 L85.1018182,23.4210526 Z" id="Shape" fill="#0BD4FF"></path>
                <ellipse id="Oval" fill="#FFFFFF" cx="140.096364" cy="123.578947" rx="15.5018182" ry="15.4736842"></ellipse>
                <ellipse id="Oval" fill="#DADADA" cx="139.832727" cy="123.578947" rx="9.17454545" ry="9.15789474"></ellipse>
                <path d="M140.096364,140 C131.027273,140 123.645455,132.631579 123.645455,123.578947 C123.645455,114.526316 131.027273,107.157895 140.096364,107.157895 C149.165455,107.157895 156.547273,114.526316 156.547273,123.578947 C156.547273,132.631579 149.165455,140 140.096364,140 Z M140.096364,109.052632 C132.081818,109.052632 125.596364,115.578947 125.596364,123.578947 C125.596364,131.578947 132.134545,138.105263 140.096364,138.105263 C148.110909,138.105263 154.649091,131.578947 154.649091,123.578947 C154.649091,115.578947 148.110909,109.052632 140.096364,109.052632 Z" id="Shape" fill="#4A555F"></path>
                <path d="M139.516364,136.421053 C138.830909,136.368421 138.145455,136.315789 137.46,136.157895 L137.881818,134.263158 C138.461818,134.368421 139.041818,134.473684 139.621818,134.473684 L139.516364,136.421053 Z M141.572727,136.315789 L141.361818,134.421053 C141.941818,134.368421 142.521818,134.263158 143.101818,134.105263 L143.629091,135.947368 C142.943636,136.105263 142.258182,136.263158 141.572727,136.315789 Z M135.403636,135.526316 C134.770909,135.263158 134.138182,134.947368 133.505455,134.631579 L134.507273,132.947368 C135.034545,133.263158 135.561818,133.526316 136.089091,133.736842 L135.403636,135.526316 Z M145.58,135.210526 L144.736364,133.473684 C145.263636,133.210526 145.790909,132.947368 146.265455,132.578947 L147.372727,134.157895 C146.792727,134.578947 146.212727,134.894737 145.58,135.210526 Z M131.870909,133.421053 C131.343636,133 130.816364,132.473684 130.394545,131.947368 L131.870909,130.684211 C132.24,131.105263 132.661818,131.526316 133.136364,131.947368 L131.870909,133.421053 Z M149.007273,132.894737 L147.689091,131.526316 C148.110909,131.105263 148.532727,130.684211 148.849091,130.210526 L150.378182,131.368421 C149.956364,131.894737 149.481818,132.368421 149.007273,132.894737 Z M129.129091,130.315789 C128.76,129.736842 128.443636,129.105263 128.18,128.473684 L129.972727,127.736842 C130.183636,128.263158 130.447273,128.789474 130.763636,129.315789 L129.129091,130.315789 Z M151.485455,129.578947 L149.798182,128.684211 C150.061818,128.157895 150.325455,127.631579 150.483636,127.052632 L152.329091,127.684211 C152.118182,128.315789 151.854545,128.947368 151.485455,129.578947 Z M127.547273,126.473684 C127.389091,125.789474 127.283636,125.105263 127.230909,124.421053 L129.181818,124.315789 C129.234545,124.894737 129.287273,125.473684 129.445455,126.052632 L127.547273,126.473684 Z M152.856364,125.631579 L150.958182,125.315789 C151.063636,124.736842 151.116364,124.157895 151.116364,123.526316 C151.116364,123.052632 151.063636,122.578947 151.010909,122.105263 L152.909091,121.842105 C152.961818,122.368421 153.014545,122.947368 153.014545,123.526316 C153.014545,124.263158 152.961818,124.947368 152.856364,125.631579 Z M129.181818,122.526316 L127.283636,122.368421 C127.336364,121.684211 127.494545,121 127.652727,120.315789 L129.498182,120.789474 C129.392727,121.315789 129.287273,121.894737 129.181818,122.526316 Z M150.589091,120.421053 C150.430909,119.842105 150.22,119.315789 149.956364,118.789474 L151.696364,117.947368 C152.012727,118.578947 152.276364,119.210526 152.434545,119.894737 L150.589091,120.421053 Z M130.130909,119.105263 L128.390909,118.315789 C128.654545,117.684211 129.023636,117.052632 129.392727,116.473684 L131.027273,117.526316 C130.658182,118.052632 130.341818,118.578947 130.130909,119.105263 Z M149.06,117.263158 C148.743636,116.789474 148.321818,116.315789 147.9,115.894737 L149.270909,114.526316 C149.745455,115 150.22,115.578947 150.589091,116.105263 L149.06,117.263158 Z M132.029091,116.157895 L130.605455,114.842105 C131.08,114.315789 131.607273,113.842105 132.134545,113.421053 L133.347273,114.947368 C132.872727,115.315789 132.450909,115.736842 132.029091,116.157895 Z M146.581818,114.736842 C146.107273,114.368421 145.58,114.052632 145.052727,113.789474 L145.949091,112.052632 C146.581818,112.368421 147.161818,112.736842 147.741818,113.157895 L146.581818,114.736842 Z M134.823636,114 L133.874545,112.315789 C134.507273,112 135.14,111.684211 135.772727,111.473684 L136.405455,113.315789 C135.878182,113.421053 135.350909,113.684211 134.823636,114 Z M143.418182,113.157895 C142.838182,113 142.258182,112.842105 141.678182,112.789474 L141.941818,110.894737 C142.627273,111 143.312727,111.157895 143.998182,111.368421 L143.418182,113.157895 Z M138.145455,112.789474 L137.829091,110.894737 C138.514545,110.789474 139.2,110.684211 139.885455,110.684211 L139.938182,112.631579 C139.358182,112.631579 138.725455,112.684211 138.145455,112.789474 Z" id="Shape" fill="#4A555F"></path>
                <path d="M139.516364,136.421053 C138.830909,136.368421 138.145455,136.315789 137.46,136.157895 L137.881818,134.263158 C138.461818,134.368421 139.041818,134.473684 139.621818,134.473684 L139.516364,136.421053 Z M141.572727,136.315789 L141.361818,134.421053 C141.941818,134.368421 142.521818,134.263158 143.101818,134.105263 L143.629091,135.947368 C142.943636,136.105263 142.258182,136.263158 141.572727,136.315789 Z M135.403636,135.526316 C134.770909,135.263158 134.138182,134.947368 133.505455,134.631579 L134.507273,132.947368 C135.034545,133.263158 135.561818,133.526316 136.089091,133.736842 L135.403636,135.526316 Z M145.58,135.210526 L144.736364,133.473684 C145.263636,133.210526 145.790909,132.947368 146.265455,132.578947 L147.372727,134.157895 C146.792727,134.578947 146.212727,134.894737 145.58,135.210526 Z M131.870909,133.421053 C131.343636,133 130.816364,132.473684 130.394545,131.947368 L131.870909,130.684211 C132.24,131.105263 132.661818,131.526316 133.136364,131.947368 L131.870909,133.421053 Z M149.007273,132.894737 L147.689091,131.526316 C148.110909,131.105263 148.532727,130.684211 148.849091,130.210526 L150.378182,131.368421 C149.956364,131.894737 149.481818,132.368421 149.007273,132.894737 Z M129.129091,130.315789 C128.76,129.736842 128.443636,129.105263 128.18,128.473684 L129.972727,127.736842 C130.183636,128.263158 130.447273,128.789474 130.763636,129.315789 L129.129091,130.315789 Z M151.485455,129.578947 L149.798182,128.684211 C150.061818,128.157895 150.325455,127.631579 150.483636,127.052632 L152.329091,127.684211 C152.118182,128.315789 151.854545,128.947368 151.485455,129.578947 Z M127.547273,126.473684 C127.389091,125.789474 127.283636,125.105263 127.230909,124.421053 L129.181818,124.315789 C129.234545,124.894737 129.287273,125.473684 129.445455,126.052632 L127.547273,126.473684 Z M152.856364,125.631579 L150.958182,125.315789 C151.063636,124.736842 151.116364,124.157895 151.116364,123.526316 C151.116364,123.052632 151.063636,122.578947 151.010909,122.105263 L152.909091,121.842105 C152.961818,122.368421 153.014545,122.947368 153.014545,123.526316 C153.014545,124.263158 152.961818,124.947368 152.856364,125.631579 Z M129.181818,122.526316 L127.283636,122.368421 C127.336364,121.684211 127.494545,121 127.652727,120.315789 L129.498182,120.789474 C129.392727,121.315789 129.287273,121.894737 129.181818,122.526316 Z M150.589091,120.421053 C150.430909,119.842105 150.22,119.315789 149.956364,118.789474 L151.696364,117.947368 C152.012727,118.578947 152.276364,119.210526 152.434545,119.894737 L150.589091,120.421053 Z M130.130909,119.105263 L128.390909,118.315789 C128.654545,117.684211 129.023636,117.052632 129.392727,116.473684 L131.027273,117.526316 C130.658182,118.052632 130.341818,118.578947 130.130909,119.105263 Z M149.06,117.263158 C148.743636,116.789474 148.321818,116.315789 147.9,115.894737 L149.270909,114.526316 C149.745455,115 150.22,115.578947 150.589091,116.105263 L149.06,117.263158 Z M132.029091,116.157895 L130.605455,114.842105 C131.08,114.315789 131.607273,113.842105 132.134545,113.421053 L133.347273,114.947368 C132.872727,115.315789 132.450909,115.736842 132.029091,116.157895 Z M146.581818,114.736842 C146.107273,114.368421 145.58,114.052632 145.052727,113.789474 L145.949091,112.052632 C146.581818,112.368421 147.161818,112.736842 147.741818,113.157895 L146.581818,114.736842 Z M134.823636,114 L133.874545,112.315789 C134.507273,112 135.14,111.684211 135.772727,111.473684 L136.405455,113.315789 C135.878182,113.421053 135.350909,113.684211 134.823636,114 Z M143.418182,113.157895 C142.838182,113 142.258182,112.842105 141.678182,112.789474 L141.941818,110.894737 C142.627273,111 143.312727,111.157895 143.998182,111.368421 L143.418182,113.157895 Z M138.145455,112.789474 L137.829091,110.894737 C138.514545,110.789474 139.2,110.684211 139.885455,110.684211 L139.938182,112.631579 C139.358182,112.631579 138.725455,112.684211 138.145455,112.789474 Z" id="Shape" fill="#4A555F"></path>
                <polygon id="Shape" fill="#4A555F" points="138.936364 128.421053 135.14 124.210526 136.563636 122.894737 138.989091 125.578947 145.210909 119.052632 146.581818 120.368421"></polygon>
                <rect id="Rectangle-path" fill="#4A555F" x="95.12" y="62.4210526" width="29.5272727" height="1.94736842"></rect>
                <rect id="Rectangle-path" fill="#4A555F" x="95.12" y="70.6842105" width="29.5272727" height="1.94736842"></rect>
                <rect id="Rectangle-path" fill="#4A555F" x="95.12" y="78.9473684" width="29.5272727" height="1.94736842"></rect>
                <rect id="Rectangle-path" fill="#4A555F" x="95.12" y="87.2105263" width="29.5272727" height="1.94736842"></rect>
                <rect id="Rectangle-path" fill="#4A555F" x="95.12" y="95.5263158" width="29.5272727" height="1.94736842"></rect>
                <rect id="Rectangle-path" fill="#4A555F" x="95.12" y="103.789474" width="17.2945455" height="1.94736842"></rect>
                <rect id="Rectangle-path" fill="#4A555F" x="56.0490909" y="35.4736842" width="23.5163636" height="1.94736842"></rect>
                <rect id="Rectangle-path" fill="#4A555F" x="56.0490909" y="42.0526316" width="23.5163636" height="1.94736842"></rect>
                <rect id="Rectangle-path" fill="#4A555F" x="56.0490909" y="48.6842105" width="23.5163636" height="1.94736842"></rect>
                <rect id="Rectangle-path" fill="#4A555F" x="56.0490909" y="55.2631579" width="23.5163636" height="1.94736842"></rect>
                <rect id="Rectangle-path" fill="#4A555F" x="56.0490909" y="61.8421053" width="23.5163636" height="1.94736842"></rect>
                <rect id="Rectangle-path" fill="#4A555F" x="56.0490909" y="68.4210526" width="13.8145455" height="1.94736842"></rect>
                <polygon id="Shape" fill="#4A555F" points="39.3345455 22.8421053 35.5381818 18.6315789 36.9618182 17.3684211 39.3872727 20 45.6090909 13.4736842 46.98 14.7894737"></polygon>
                <g id="Group" transform="translate(4.745455, 33.684211)" fill="#4A555F">
                    <rect id="Rectangle-path" x="8.33090909" y="0.210526316" width="1.95090909" height="4.84210526"></rect>
                    <rect id="Rectangle-path" x="8.33090909" y="13.6315789" width="1.95090909" height="4.84210526"></rect>
                    <rect id="Rectangle-path" x="0.158181818" y="8.36842105" width="4.85090909" height="1.94736842"></rect>
                    <rect id="Rectangle-path" x="13.5509091" y="8.36842105" width="4.85090909" height="1.94736842"></rect>
                </g>
                <g id="Group" transform="translate(155.545455, 80.526316)" fill="#4A555F">
                    <rect id="Rectangle-path" x="8.22545455" y="0.157894737" width="1.95090909" height="4.84210526"></rect>
                    <rect id="Rectangle-path" x="8.22545455" y="13.5263158" width="1.95090909" height="4.84210526"></rect>
                    <rect id="Rectangle-path" x="0.0527272727" y="8.31578947" width="4.85090909" height="1.94736842"></rect>
                    <rect id="Rectangle-path" x="13.4454545" y="8.31578947" width="4.85090909" height="1.94736842"></rect>
                </g>
                <ellipse id="Oval" fill="#FFD552" cx="14.0254545" cy="110.473684" rx="2.16181818" ry="2.15789474"></ellipse>
                <ellipse id="Oval" fill="#E0E0E0" cx="3.63818182" cy="82.5263158" rx="3.48" ry="3.47368421"></ellipse>
                <ellipse id="Oval" fill="#00F1B7" cx="160.449091" cy="20.2105263" rx="4.69272727" ry="4.68421053"></ellipse>
            </g>
        </g>
    </g>
</svg>